<svg xmlns="http://www.w3.org/2000/svg" viewBox="0 0 408.58 163.66"><defs><style>.cls-1{fill:#2046f6;}.cls-2{fill:#ed3833;}.cls-3{font-size:75.97px;font-family:Arial-BoldItalicMT, Arial;font-weight:700;font-style:italic;letter-spacing:0.02em;}.cls-4{letter-spacing:0.02em;}.cls-5{letter-spacing:0.01em;}.cls-6{letter-spacing:0.03em;}</style></defs><g id="Layer_2" data-name="Layer 2"><path class="cls-1" d="M7199.5,7117.67c-112.83,0-204.29,36.64-204.29,81.83,0,16.44,12.11,31.74,32.94,44.57-9.23-7.82-14.38-16.5-14.38-25.63,0-34.47,73.2-62.41,163.5-62.41s163.5,27.94,163.5,62.41-73.15,62.39-163.4,62.41q10.91.48,22.13.48c112.83,0,204.29-36.64,204.29-81.83S7312.33,7117.67,7199.5,7117.67Z" transform="translate(-6995.21 -7117.67)"/><path class="cls-2" d="M7296.79,7222.37c-2.71-26.32-55.74-41.77-122.75-38.94,51.83-1.09,91.57,12.48,95,36.08,3.68,25.42-51,51.75-113.43,59.62C7239.85,7279.37,7299.58,7249.38,7296.79,7222.37Z" transform="translate(-6995.21 -7117.67)"/><text class="cls-3" transform="matrix(1.01, 0, -0.18, 0.98, 42.98, 129.58)">b<tspan class="cls-4" x="47.58" y="0">p</tspan><tspan class="cls-5" x="95.15" y="0">k</tspan><tspan class="cls-6" x="138.31" y="0">p</tspan></text></g></svg>