<svg xmlns="http://www.w3.org/2000/svg" viewBox="0 0 825.59 548.66"><defs><style>.cls-1{fill:#9fd29e;}.cls-2{fill:#30ab85;}.cls-3{fill:#1f8064;}.cls-4{fill:#185240;}.cls-5{fill:#2a4039;}.cls-35,.cls-37,.cls-6{fill:none;stroke:#231f20;stroke-miterlimit:10;}.cls-6{stroke-width:1.07px;}.cls-7{fill:#155340;}.cls-8{fill:#2da983;}.cls-9{fill:#9dd19c;}.cls-10{opacity:0.1;}.cls-11{opacity:0.2;}.cls-12{fill:#4a4a4a;}.cls-13{fill:#ffce04;}.cls-14{fill:#f68c2a;}.cls-15{fill:#a85d26;}.cls-16{fill:#010101;}.cls-17{fill:#f15e58;}.cls-18{fill:#a91e22;}.cls-19{fill:#303030;}.cls-20{fill:#ee2424;}.cls-21{fill:#272626;}.cls-22{fill:#6d6e6e;}.cls-23{fill:#9e9e9e;}.cls-24{fill:#f58020;}.cls-25{fill:#84491f;}.cls-26{fill:#ea4b3b;}.cls-27{fill:#a03625;}.cls-28{fill:#595b5a;}.cls-29{fill:#343533;}.cls-30{fill:#6b6c6b;}.cls-31{fill:#393a39;}.cls-32{fill:#414142;}.cls-33{fill:#161614;}.cls-34{fill:#244426;}.cls-35{stroke-width:2.12px;}.cls-36{fill:#426530;}.cls-37{stroke-width:1.4px;}.cls-38{fill:#187f63;}</style></defs><g id="Layer_2" data-name="Layer 2"><g id="Layer_2-2" data-name="Layer 2"><path class="cls-1" d="M24.75,298.36c-.13,2.83,29,11,32.36,12a259.72,259.72,0,0,0,35.1,7.71A270.49,270.49,0,0,0,164,319a263.08,263.08,0,0,0,93.17-29.71c30.14-16.21,55.34-40.8,87.59-53.13,17.94-6.86,40.18-10.75,58.35-2.73,21.21,9.35,39.94,26.5,63.2,30.68,28.11,5.06,56-11.68,75-33s32.06-47.29,50-69.49c44.71-55.24,121-82.88,190.75-69.06,0,.76,1.27,1.37,1.27,2.14V479.33L16.7,477Z"/><path class="cls-2" d="M43.8,398.64c54.51-37.27,113.87-76.05,179.89-74.47,25,.6,49.36,7.05,73.65,12.87,49.47,11.83,102.21,21,150.47,4.95,59.3-19.76,100-73.37,152.37-107.56a259.61,259.61,0,0,1,161-41.13c0,4.23,1.12,9.25,1.12,13.48v261.3c-.38,0,.39.85,0,.85H38.9c.39,0,.06,1.16.45,1.16Z"/><path class="cls-3" d="M3.08,390.78c0-.47,0-.94.07-1.41-.4,8.22,58.7,23.52,66.18,25.27,49.42,11.59,101.69,8.35,149.93-7,23.41-7.43,47.12-17.57,67.78-30.85s40.57-29,63.62-38.25c35.4-14.17,73.24-3.4,106,12.83,20,9.88,39.38,22.32,61.42,25.62,31.76,4.75,63.25-10.39,89.08-29.47S655.74,305,683.58,289s63.52-23.56,91.82-8.4c-.8,3.07-4.31,5.08-5.12,8.15V499.16c-1.92,0-5-1.36-6.93-1.36H.56c0-.77-.56,3.08-.56,2.31C.83,463.66,1.34,427.2,3.08,390.78Z"/><path class="cls-4" d="M775,430.66c-24.08-5.32-45.83-17.81-68.2-28.19S660,383.55,635.52,386.93c-36.35,5-64.71,35.1-100.37,43.74C491,441.37,445.78,417.49,400.34,418c-36,.43-70,16.18-100.6,35.14s-59,41.48-91,57.84A206.92,206.92,0,0,1,241,506.15H774.8c0-1,.19-1,.19-2.08Z"/><rect class="cls-5" x="137.86" y="392.11" width="99.48" height="99.48" rx="6.41"/><polyline class="cls-6" points="187.6 409.29 187.6 491.59 213.05 470.68"/><line class="cls-6" x1="217.34" y1="419.93" x2="189.04" y2="450.44"/><line class="cls-6" x1="167.29" y1="419.93" x2="187.6" y2="432.21"/><line class="cls-6" x1="189.04" y1="473.95" x2="159.59" y2="454.31"/><rect class="cls-7" x="124.57" y="320.03" width="99.48" height="99.48" rx="33.65"/><polyline class="cls-6" points="174.31 337.22 174.31 419.52 199.76 398.61"/><line class="cls-6" x1="204.05" y1="347.86" x2="175.75" y2="378.37"/><line class="cls-6" x1="154" y1="347.86" x2="174.31" y2="360.14"/><line class="cls-6" x1="175.75" y1="401.88" x2="146.3" y2="382.24"/><rect class="cls-8" x="650.04" y="216.83" width="1.23" height="19.29"/><rect class="cls-8" x="669.18" y="216.83" width="1.23" height="19.29"/><rect class="cls-8" x="713.5" y="216.83" width="1.23" height="19.29"/><rect class="cls-8" x="732.64" y="216.83" width="1.23" height="19.29"/><rect class="cls-8" x="667.52" y="230.35" width="68.37" height="33.21"/><rect class="cls-8" x="648.24" y="230.35" width="19.28" height="33.21"/><rect class="cls-8" x="671.35" y="235.67" width="5.26" height="7.36"/><rect class="cls-8" x="691.25" y="235.67" width="5.26" height="7.36"/><rect class="cls-8" x="709.42" y="235.67" width="5.26" height="7.36"/><rect class="cls-8" x="726.52" y="235.67" width="5.26" height="7.36"/><rect class="cls-8" x="671.35" y="250.05" width="5.26" height="7.36"/><rect class="cls-8" x="691.25" y="250.05" width="5.26" height="7.36"/><rect class="cls-8" x="709.42" y="250.05" width="5.26" height="7.36"/><rect class="cls-8" x="726.52" y="250.05" width="5.26" height="7.36"/><rect class="cls-8" x="659.18" y="235.67" width="4.49" height="7.36"/><rect class="cls-8" x="651.57" y="235.67" width="4.49" height="7.36"/><rect class="cls-8" x="659.18" y="250.05" width="4.49" height="7.36"/><rect class="cls-8" x="651.57" y="250.05" width="4.49" height="7.36"/><polygon class="cls-8" points="601.79 267.09 612.46 254.11 611.89 253.6 601.22 266.58 601.79 267.09"/><polygon class="cls-8" points="601.91 163.55 609.32 154.52 609.92 155.06 602 164.7 601.91 163.55"/><polygon class="cls-8" points="602.2 177.22 612.88 164.25 612.3 163.73 601.63 176.71 602.2 177.22"/><polygon class="cls-8" points="602.2 190.54 612.88 177.56 612.3 177.05 601.63 190.03 602.2 190.54"/><polygon class="cls-8" points="602.2 203.76 612.88 190.79 612.3 190.28 601.63 203.25 602.2 203.76"/><polygon class="cls-8" points="601.79 217.17 612.46 204.19 611.89 203.68 601.22 216.66 601.79 217.17"/><polygon class="cls-8" points="601.79 229.63 612.46 216.66 611.89 216.14 601.22 229.12 601.79 229.63"/><polygon class="cls-8" points="601.79 242.13 612.46 229.15 611.89 228.64 601.22 241.62 601.79 242.13"/><polygon class="cls-8" points="601.79 254.69 612.46 241.72 611.89 241.21 601.22 254.18 601.79 254.69"/><rect class="cls-8" x="600.89" y="189.55" width="11.9" height="1.45"/><rect class="cls-8" x="600.89" y="202.62" width="11.9" height="1.45"/><rect class="cls-8" x="600.89" y="215.44" width="11.9" height="1.45"/><rect class="cls-8" x="600.89" y="227.92" width="11.9" height="1.45"/><rect class="cls-8" x="600.89" y="240.32" width="11.9" height="1.45"/><rect class="cls-8" x="600.89" y="252.7" width="11.9" height="1.45"/><rect class="cls-8" x="601.57" y="176.28" width="11.9" height="1.45"/><rect class="cls-8" x="600.89" y="163.01" width="11.9" height="1.45"/><path class="cls-8" d="M600.84,261.75V138.81a.66.66,0,0,1,.66-.65h.34a.65.65,0,0,1,.65.65V261.75a.16.16,0,0,1-.16.16H601A.17.17,0,0,1,600.84,261.75Z"/><path class="cls-8" d="M612.07,261.81V162.47a.49.49,0,0,1,.49-.49h.57a.49.49,0,0,1,.49.49v99.34Z"/><path class="cls-8" d="M612.23,163.23,601.31,140.3a1.32,1.32,0,0,1,.62-1.75l.3-.14,11.41,24a.17.17,0,0,1-.08.23Z"/><polygon class="cls-8" points="583.31 155.02 583.09 154.78 602.55 137.11 602.63 137.13 672.84 154.42 672.76 154.74 602.64 137.47 583.31 155.02"/><polygon class="cls-8" points="690.94 162.92 680.65 155 680.16 155.59 690.45 163.51 690.94 162.92"/><polygon class="cls-8" points="680.16 162.92 669.87 155 669.38 155.59 679.66 163.51 680.16 162.92"/><polygon class="cls-8" points="669.51 162.92 659.22 155 658.73 155.59 669.02 163.51 669.51 162.92"/><polygon class="cls-8" points="658.96 162.92 648.67 155 648.18 155.59 658.47 163.51 658.96 162.92"/><polygon class="cls-8" points="647.94 162.92 637.65 155 637.16 155.59 647.45 163.51 647.94 162.92"/><polygon class="cls-8" points="637.76 162.92 627.47 155 626.97 155.59 637.26 163.51 637.76 162.92"/><rect class="cls-8" x="626.61" y="155.14" width="0.93" height="8.46"/><rect class="cls-8" x="637.27" y="155.14" width="0.93" height="8.46"/><rect class="cls-8" x="647.62" y="155.14" width="0.93" height="8.46"/><rect class="cls-8" x="658.64" y="155.14" width="0.93" height="8.46"/><rect class="cls-8" x="669.23" y="155.14" width="0.93" height="8.46"/><rect class="cls-8" x="679.92" y="155.14" width="0.93" height="8.46"/><rect class="cls-8" x="690.58" y="155.14" width="0.93" height="8.46"/><path class="cls-8" d="M685.89,164.32h-72.7a.37.37,0,0,1-.37-.37v-.54a.38.38,0,0,1,.37-.37h72.7a.09.09,0,0,1,.09.09v1.09A.09.09,0,0,1,685.89,164.32Z"/><path class="cls-8" d="M685.92,155.64H627.25a.35.35,0,0,1-.34-.35v-.51a.34.34,0,0,1,.34-.34h58.67Z"/><path class="cls-8" d="M627.65,155.52l-13.38,8.32c-.49.31-1.07,0-1.3-.6h0l14.14-8.8a.11.11,0,0,1,.17.07Z"/><path class="cls-8" d="M632.74,164.32h72.7a.36.36,0,0,0,.37-.37v-.54a.37.37,0,0,0-.37-.37h-72.7a.09.09,0,0,0-.09.09v1.09A.09.09,0,0,0,632.74,164.32Z"/><path class="cls-8" d="M632.71,155.64h58.67a.35.35,0,0,0,.35-.35v-.51a.35.35,0,0,0-.35-.34H632.71Z"/><path class="cls-8" d="M691,155.52l13.37,8.33a.89.89,0,0,0,1.3-.61h0l-14.14-8.8c-.07,0-.14,0-.17.08Z"/><polygon class="cls-8" points="592.19 163.03 581.89 155.11 581.4 155.7 591.69 163.63 592.19 163.03"/><polygon class="cls-8" points="582.33 163.03 572.04 155.11 571.54 155.7 581.84 163.63 582.33 163.03"/><rect class="cls-8" x="591.64" y="155.14" width="0.93" height="8.46"/><rect class="cls-8" x="581.4" y="155.14" width="0.93" height="8.46"/><rect class="cls-8" x="571.82" y="155.14" width="0.93" height="8.46"/><path class="cls-8" d="M602,163.94v-.46a.44.44,0,0,0-.44-.44H578.06a.17.17,0,0,0-.17.17v1.1h23.72A.36.36,0,0,0,602,163.94Z"/><path class="cls-8" d="M578,155.63H591.6a.47.47,0,0,0,.47-.48v-.43a.29.29,0,0,0-.29-.29H578a.13.13,0,0,0-.13.13v.94A.13.13,0,0,0,578,155.63Z"/><path class="cls-8" d="M591.52,155.51l9.43,8.33c.35.3.76,0,.92-.6h0l-10-8.81s-.1,0-.12.08Z"/><path class="cls-8" d="M561.76,163.94v-.46a.45.45,0,0,1,.45-.44h23.46a.16.16,0,0,1,.17.17v1.1H562.12A.36.36,0,0,1,561.76,163.94Z"/><path class="cls-8" d="M585.69,155.63H572.13a.47.47,0,0,1-.47-.48v-.43a.29.29,0,0,1,.29-.29h13.74a.13.13,0,0,1,.13.13v.94A.13.13,0,0,1,585.69,155.63Z"/><path class="cls-8" d="M572.2,155.51l-9.42,8.33c-.35.3-.76,0-.92-.6h0l10-8.81s.1,0,.12.08Z"/><path class="cls-8" d="M573.45,160.5V147.62a2.34,2.34,0,0,1,2.34-2.34h7.91V160.5Z"/><path class="cls-8" d="M562.48,163.13v-9.61a1.22,1.22,0,0,1,1.21-1.22h20v10.83Z"/><rect class="cls-8" x="574.12" y="155.03" width="7.46" height="1.03"/><rect class="cls-8" x="574.12" y="157.51" width="7.46" height="1.03"/><rect class="cls-8" x="570.6" y="160" width="10.98" height="1.03"/><circle class="cls-8" cx="603.03" cy="139.47" r="2.18"/><rect class="cls-8" x="609.55" y="173.62" width="10.31" height="4.14"/><path class="cls-8" d="M609.55,173.62v-8.41a.92.92,0,0,1,.94-.9h6.17a.93.93,0,0,1,.91.68l2.29,8.63Z"/><path class="cls-8" d="M612.33,172.25v-6.51a.55.55,0,0,1,.56-.54h3.41a.57.57,0,0,1,.55.4l1.81,6.51a.55.55,0,0,1-.55.68h-5.22A.56.56,0,0,1,612.33,172.25Z"/><path class="cls-8" d="M617.35,172h-3.93a.42.42,0,0,1-.43-.42v-5.13a.43.43,0,0,1,.43-.43H616l.11,0a.4.4,0,0,1,.29.3l.26.93.7,2.63.41,1.56A.43.43,0,0,1,617.35,172Z"/><path class="cls-8" d="M615.44,166,613,168v-1.6a.43.43,0,0,1,.43-.43Z"/><path class="cls-8" d="M616.64,167.25l-3.65,3v-1.66L616.1,166a.4.4,0,0,1,.29.3Z"/><path class="cls-8" d="M617.35,172h-2.53l2.53-2.09.41,1.56A.42.42,0,0,1,617.35,172Z"/><path class="cls-8" d="M609.55,178v-.24h10.31V178a.94.94,0,0,1-1,.95H610.5A.94.94,0,0,1,609.55,178Z"/><path class="cls-8" d="M696.05,181.87h0l-21.44-4.38a.15.15,0,0,1-.12-.19.16.16,0,0,1,.19-.13l21.43,4.38a.17.17,0,0,1,0,.33Z"/><rect class="cls-8" x="670.73" y="166.54" width="0.29" height="4.9"/><rect class="cls-8" x="678.1" y="166.36" width="0.29" height="4.9"/><circle class="cls-8" cx="671.71" cy="166.81" r="1.07"/><circle class="cls-8" cx="677.4" cy="166.81" r="1.07"/><path class="cls-8" d="M672.92,166.37v-3a1,1,0,0,1,1-1h1.33a1,1,0,0,1,1,1v3a1,1,0,0,1-1,1H673.9A1,1,0,0,1,672.92,166.37Z"/><path class="cls-8" d="M671.18,167v-.4a.34.34,0,0,1,.34-.34h6.09a.34.34,0,0,1,.34.34v.4a.34.34,0,0,1-.34.34h-6.09A.34.34,0,0,1,671.18,167Z"/><circle class="cls-8" cx="677.4" cy="171.26" r="1.07"/><circle class="cls-8" cx="671.71" cy="171.26" r="1.07"/><path class="cls-8" d="M674.52,178.64a1.55,1.55,0,0,1-1.2-.49.49.49,0,1,1,.77-.61.79.79,0,0,0,.56.1.42.42,0,0,0,.35-.25.47.47,0,0,0,0-.43,1.18,1.18,0,0,0-.56-.52.48.48,0,0,1-.29-.45v-1.31a.49.49,0,1,1,1,0v1a2,2,0,0,1,.79.9,1.5,1.5,0,0,1-.05,1.19,1.45,1.45,0,0,1-1.17.84Z"/><path class="cls-8" d="M675.14,174.85l2.61-3.08a.71.71,0,0,0-.55-1.17H672a.71.71,0,0,0-.54,1.17l2.6,3.08A.71.71,0,0,0,675.14,174.85Z"/><path class="cls-8" d="M673.56,175.23v-.3a.25.25,0,0,1,.25-.25h1.64a.25.25,0,0,1,.25.25v.3a.25.25,0,0,1-.25.25h-1.64A.25.25,0,0,1,673.56,175.23Z"/><path class="cls-8" d="M654.36,181.94a.17.17,0,0,1,0-.33l20.2-4.45a.16.16,0,0,1,.19.13.16.16,0,0,1-.12.19l-20.2,4.45Z"/><rect class="cls-8" x="652.77" y="180.26" width="44.55" height="4.33"/><rect class="cls-8" x="652.77" y="180.26" width="4.67" height="4.33"/><rect class="cls-8" x="673.09" y="249.18" width="68.02" height="14.37"/><polygon class="cls-8" points="673.09 259.77 676.94 249.19 674.9 249.19 673.09 254.16 673.09 259.77"/><polygon class="cls-8" points="682.87 249.19 677.64 263.56 675.6 263.56 680.83 249.19 682.87 249.19"/><polygon class="cls-8" points="689.04 249.19 683.81 263.56 681.77 263.56 687 249.19 689.04 249.19"/><polygon class="cls-8" points="694.59 249.19 689.36 263.56 687.32 263.56 692.55 249.19 694.59 249.19"/><polygon class="cls-8" points="700.52 249.19 695.29 263.56 693.25 263.56 698.48 249.19 700.52 249.19"/><polygon class="cls-8" points="706.69 249.19 701.46 263.56 699.42 263.56 704.65 249.19 706.69 249.19"/><polygon class="cls-8" points="712.31 249.19 707.09 263.56 705.04 263.56 710.27 249.19 712.31 249.19"/><polygon class="cls-8" points="718.24 249.19 713.01 263.56 710.97 263.56 716.2 249.19 718.24 249.19"/><polygon class="cls-8" points="724.42 249.19 719.19 263.56 717.15 263.56 722.37 249.19 724.42 249.19"/><polygon class="cls-8" points="729.96 249.19 724.74 263.56 722.7 263.56 727.92 249.19 729.96 249.19"/><polygon class="cls-8" points="735.89 249.19 730.66 263.56 728.62 263.56 733.85 249.19 735.89 249.19"/><polygon class="cls-8" points="741.11 249.19 741.11 251.82 736.84 263.56 734.8 263.56 740.03 249.19 741.11 249.19"/><polygon class="cls-1" points="744.81 0 744.81 1.22 743.59 1.22 743.59 4.71 765.03 4.71 765.03 112.16 729.85 112.16 729.85 10.31 729.85 4.71 729.85 1.22 728.57 1.22 728.57 0 744.81 0"/><rect class="cls-1" x="673.4" y="34.28" width="24.5" height="77.87"/><rect class="cls-1" x="693.04" y="50.51" width="26.7" height="61.65"/><rect class="cls-1" x="682.21" y="31.16" width="10.83" height="9.32"/><rect class="cls-1" x="694.87" y="49.5" width="28.46" height="2.28"/><rect class="cls-1" x="716.87" y="76.95" width="29.93" height="35.21"/><rect class="cls-1" x="649" y="79.6" width="27.27" height="36.72" transform="translate(1325.27 195.93) rotate(180)"/><rect class="cls-1" x="648.3" y="78.2" width="29.56" height="1.41" transform="translate(1326.15 157.8) rotate(180)"/><rect class="cls-1" x="663.08" y="74.37" width="11.98" height="7.45" transform="translate(1338.14 156.19) rotate(180)"/><rect class="cls-1" x="657.15" y="74.37" width="2.01" height="4.53" transform="translate(1316.31 153.27) rotate(180)"/><rect class="cls-1" x="652.92" y="74.37" width="2.21" height="4.53" transform="translate(1308.06 153.27) rotate(180)"/><path class="cls-9" d="M355,186c-4.63-3.93-6.37-3.61-6.61-3.35s-.34,2,4.29,5.91,12.16,8.71,12.48,8.35S359.59,189.89,355,186Z"/><path class="cls-9" d="M365.12,196.86,348.35,182.6c.24-.26,2-.58,6.61,3.35S365.45,196.5,365.12,196.86Z"/><path class="cls-9" d="M339.45,182.71c6.14-1.14,7.49,0,7.56.36s-.75,1.9-6.88,3-15.25,1.57-15.34,1.09S333.31,183.85,339.45,182.71Z"/><path class="cls-9" d="M324.79,187.2,347,183.07c-.07-.35-1.42-1.5-7.56-.36S324.69,186.72,324.79,187.2Z"/><path class="cls-9" d="M352.51,177.12c-2.58,5.75-4.37,6.2-4.73,6s-1.23-1.72,1.36-7.48,7.52-13.57,8-13.37S355.1,171.35,352.51,177.12Z"/><path class="cls-9" d="M357.14,162.32l-9.36,20.85c.36.15,2.15-.3,4.73-6S357.61,162.52,357.14,162.32Z"/><path class="cls-9" d="M350.79,183.37a3,3,0,1,1-3-2.82A2.92,2.92,0,0,1,350.79,183.37Z"/><path class="cls-9" d="M349.64,183.37a1.86,1.86,0,1,1-1.86-1.75A1.8,1.8,0,0,1,349.64,183.37Z"/><path class="cls-9" d="M355.83,162.32h1.31l-1.66,2.37A7.19,7.19,0,0,0,355.83,162.32Z"/><path class="cls-9" d="M363.81,196.86h1.31l-1.78-1.11A4,4,0,0,1,363.81,196.86Z"/><polygon class="cls-9" points="347.24 182.63 348.94 182.47 352.09 248.62 345.37 248.93 347.24 182.63"/><polygon class="cls-9" points="345.71 182.63 347.75 182.63 350.56 248.62 343.84 248.93 345.71 182.63"/><g class="cls-10"><polygon class="cls-9" points="345.71 182.63 343.84 248.93 346.05 248.77 346.22 182.47 345.71 182.63"/></g><g class="cls-11"><polygon class="cls-9" points="346.73 182.63 348.18 248.77 350.56 248.62 347.75 182.63 346.73 182.63"/></g><rect class="cls-9" x="337.53" y="248.46" width="14.89" height="1.1"/><rect class="cls-9" x="352.09" y="248.46" width="7.76" height="1.1"/><path class="cls-9" d="M353.65,186c-4.63-3.93-6.36-3.61-6.6-3.35s-.34,2,4.29,5.91,12.15,8.71,12.47,8.35S358.29,189.89,353.65,186Z"/><path class="cls-9" d="M363.81,196.86,347.05,182.6c.24-.26,2-.58,6.6,3.35S364.14,196.5,363.81,196.86Z"/><path class="cls-9" d="M338.15,182.71c6.14-1.14,7.49,0,7.56.36s-.75,1.9-6.88,3-15.25,1.57-15.35,1.09S332,183.85,338.15,182.71Z"/><path class="cls-9" d="M323.48,187.2l22.23-4.13c-.07-.35-1.42-1.5-7.56-.36S323.38,186.72,323.48,187.2Z"/><path class="cls-9" d="M351.21,177.12c-2.59,5.75-4.38,6.2-4.73,6s-1.23-1.72,1.35-7.48,7.53-13.57,8-13.37S353.79,171.35,351.21,177.12Z"/><path class="cls-9" d="M355.83,162.32l-9.35,20.85c.35.15,2.14-.3,4.73-6S356.31,162.52,355.83,162.32Z"/><path class="cls-9" d="M349.49,183.37a3,3,0,1,1-3-2.82A2.93,2.93,0,0,1,349.49,183.37Z"/><path class="cls-9" d="M348.34,183.37a1.86,1.86,0,0,1-3.72,0,1.86,1.86,0,0,1,3.72,0Z"/><polygon class="cls-9" points="400.38 188.52 401.93 188.37 404.81 248.9 398.67 249.19 400.38 188.52"/><polygon class="cls-9" points="398.98 188.52 400.85 188.52 403.41 248.9 397.26 249.19 398.98 188.52"/><g class="cls-10"><polygon class="cls-9" points="398.98 188.52 397.26 249.19 399.29 249.04 399.44 188.37 398.98 188.52"/></g><g class="cls-11"><polygon class="cls-9" points="399.91 188.52 401.24 249.04 403.41 248.9 400.85 188.52 399.91 188.52"/></g><rect class="cls-9" x="391.49" y="248.76" width="13.62" height="1.01"/><rect class="cls-9" x="404.81" y="248.76" width="7.11" height="1.01"/><path class="cls-9" d="M398.46,196.2c3.41-4.35,3-5.87,2.74-6.06s-1.87-.19-5.28,4.16-7.45,11.32-7.1,11.58S395,200.55,398.46,196.2Z"/><path class="cls-9" d="M388.82,205.88l12.38-15.74c.27.19.67,1.71-2.74,6.06S389.18,206.15,388.82,205.88Z"/><path class="cls-9" d="M400.58,182.23c1.43,5.39.44,6.66.11,6.74s-1.83-.55-3.26-5.94-2.37-13.46-1.93-13.57S399.15,176.84,400.58,182.23Z"/><path class="cls-9" d="M395.5,169.46,400.69,189c.33-.08,1.32-1.35-.11-6.74S395.94,169.35,395.5,169.46Z"/><path class="cls-9" d="M406.6,193.51c-5.55-2-6.08-3.52-6-3.84s1.54-1.2,7.1.76,13.17,5.88,13,6.31S412.16,195.46,406.6,193.51Z"/><path class="cls-9" d="M420.75,196.74l-20.11-7.07c-.12.32.41,1.88,6,3.84S420.59,197.18,420.75,196.74Z"/><path class="cls-9" d="M400.63,192.35a2.69,2.69,0,0,1-2.83-2.51,2.66,2.66,0,1,1,2.83,2.51Z"/><path class="cls-9" d="M400.56,191.33a1.65,1.65,0,0,1-1.74-1.55,1.64,1.64,0,1,1,1.74,1.55Z"/><path class="cls-9" d="M420.68,195.58l.07,1.16-2.31-1.33A7,7,0,0,0,420.68,195.58Z"/><path class="cls-9" d="M388.75,204.72l.07,1.16.94-1.65A4,4,0,0,1,388.75,204.72Z"/><path class="cls-9" d="M398.38,195.05c3.41-4.35,3-5.87,2.75-6.07s-1.87-.19-5.29,4.16-7.45,11.32-7.09,11.58S395,199.4,398.38,195.05Z"/><path class="cls-9" d="M388.75,204.72,401.13,189c.26.2.66,1.72-2.75,6.07S389.1,205,388.75,204.72Z"/><path class="cls-9" d="M400.5,181.07c1.43,5.39.44,6.66.11,6.74s-1.83-.54-3.26-5.93-2.37-13.47-1.93-13.58S399.07,175.68,400.5,181.07Z"/><path class="cls-9" d="M395.42,168.3l5.19,19.51c.33-.08,1.32-1.35-.11-6.74S395.86,168.19,395.42,168.3Z"/><path class="cls-9" d="M406.52,192.35c-5.55-2-6.08-3.52-6-3.84s1.55-1.2,7.1.76,13.17,5.88,13,6.31S412.08,194.31,406.52,192.35Z"/><path class="cls-9" d="M420.68,195.58l-20.12-7.07c-.12.32.41,1.88,6,3.84S420.52,196,420.68,195.58Z"/><path class="cls-9" d="M400.55,191.19a2.68,2.68,0,1,1,2.48-2.84A2.68,2.68,0,0,1,400.55,191.19Z"/><path class="cls-9" d="M400.49,190.17a1.65,1.65,0,1,1,1.52-1.75A1.63,1.63,0,0,1,400.49,190.17Z"/><rect class="cls-12" x="534.85" y="397.01" width="9.09" height="1.09" transform="translate(1078.79 795.11) rotate(180)"/><rect class="cls-12" x="510.55" y="397.01" width="9.09" height="1.09" transform="translate(1030.18 795.11) rotate(180)"/><rect class="cls-12" x="486.24" y="397.01" width="9.09" height="1.09" transform="translate(981.57 795.11) rotate(180)"/><path class="cls-13" d="M567.78,398.24h.2a0,0,0,0,1,0,0v3.08a0,0,0,0,1,0,0h-.2a.22.22,0,0,1-.22-.22v-2.64A.22.22,0,0,1,567.78,398.24Z" transform="translate(1135.53 799.56) rotate(180)"/><rect class="cls-14" x="550.88" y="385.88" width="2.08" height="12.83"/><rect class="cls-14" x="550.53" y="389.84" width="2.08" height="8.87"/><path class="cls-14" d="M562.05,388.9l3-2.46a.17.17,0,1,1,.22.26l-.9.74.09.15,1.81-1,.34,1.64-1.06,1.53-2.62-1.16-.64.53a.15.15,0,0,1-.11,0,.16.16,0,0,1-.13-.06A.17.17,0,0,1,562.05,388.9Z"/><path class="cls-14" d="M567.13,394.35h.49a0,0,0,0,1,0,0v7.58a0,0,0,0,1,0,0h-.49a.54.54,0,0,1-.54-.54v-6.5A.54.54,0,0,1,567.13,394.35Z" transform="translate(1134.2 796.28) rotate(180)"/><path class="cls-15" d="M551.92,380.28v17.83h15.33v-2.76c0-5.11-.46-11.73-4-15.31H552.16A.24.24,0,0,0,551.92,380.28Zm3.85,1.76h8.56a18.87,18.87,0,0,1,1.92,6.22H564a1.07,1.07,0,0,1-1-.64,1.07,1.07,0,0,0-1-.64h-6.3Z"/><rect class="cls-16" x="479.88" y="397.47" width="72.04" height="4.37" transform="translate(1031.81 799.3) rotate(180)"/><path class="cls-14" d="M552.39,382.57h2.82a.11.11,0,0,0,.11-.11.11.11,0,0,0-.11-.1h-2.82a.11.11,0,1,0,0,.21Z"/><path class="cls-14" d="M552.39,383.11h2.82a.11.11,0,0,0,.11-.11.1.1,0,0,0-.11-.1h-2.82c-.07,0-.12,0-.12.1A.11.11,0,0,0,552.39,383.11Z"/><path class="cls-14" d="M552.39,383.65h2.82a.11.11,0,1,0,0-.22h-2.82a.11.11,0,1,0,0,.22Z"/><path class="cls-14" d="M552.39,384.19h2.82a.11.11,0,0,0,0-.22h-2.82a.11.11,0,1,0,0,.22Z"/><path class="cls-14" d="M552.39,384.73h2.82a.11.11,0,1,0,0-.22h-2.82a.11.11,0,1,0,0,.22Z"/><path class="cls-14" d="M552.39,385.27h2.82a.11.11,0,1,0,0-.22h-2.82a.11.11,0,1,0,0,.22Z"/><path class="cls-14" d="M552.39,385.8h2.82a.1.1,0,0,0,.11-.1.11.11,0,0,0-.11-.11h-2.82a.11.11,0,0,0-.12.11C552.27,385.76,552.32,385.8,552.39,385.8Z"/><path class="cls-14" d="M552.39,386.34h2.82a.1.1,0,0,0,.11-.1.11.11,0,0,0-.11-.11h-2.82a.11.11,0,0,0-.12.11C552.27,386.3,552.32,386.34,552.39,386.34Z"/><path class="cls-14" d="M559,391.21H560a.4.4,0,0,1,.4.4v.08a0,0,0,0,1,0,0h-1.87a0,0,0,0,1,0,0v-.08a.4.4,0,0,1,.4-.4Z" transform="translate(1119.04 782.91) rotate(180)"/><path class="cls-16" d="M558.93,390.95h1.17a.44.44,0,0,1,.44.44v.09a0,0,0,0,1,0,0h-2.05a0,0,0,0,1,0,0v-.09A.44.44,0,0,1,558.93,390.95Z"/><rect class="cls-17" x="481.39" y="374.66" width="67.39" height="21.66" transform="translate(1030.18 770.99) rotate(180)"/><rect class="cls-18" x="482.27" y="375.27" width="65.64" height="20.44" transform="translate(1030.18 770.99) rotate(180)"/><rect class="cls-19" x="481.39" y="396.32" width="67.39" height="0.76" transform="translate(1030.18 793.41) rotate(180)"/><rect class="cls-16" x="479.26" y="397.47" width="0.62" height="2.41" transform="translate(959.14 797.35) rotate(180)"/><rect class="cls-20" x="478.75" y="397.47" width="0.51" height="2.41" transform="translate(958.01 797.35) rotate(180)"/><path class="cls-14" d="M532.44,398.11h34.82a0,0,0,0,1,0,0v4.3a0,0,0,0,1,0,0H531.93a0,0,0,0,1,0,0v-3.79A.51.51,0,0,1,532.44,398.11Z" transform="translate(1099.18 800.52) rotate(180)"/><path class="cls-16" d="M555,402.41a4.39,4.39,0,0,1-.25-1.46,4,4,0,1,1,7.92,0,4.15,4.15,0,0,1-.26,1.46Z"/><circle class="cls-16" cx="558.75" cy="401.04" r="3.59"/><circle class="cls-21" cx="558.75" cy="401.04" r="3.59"/><circle class="cls-21" cx="558.75" cy="401.04" r="3.59"/><path class="cls-16" d="M558.81,398.28a2.05,2.05,0,0,1-.06.68,1.78,1.78,0,0,1-.06-.68,1.85,1.85,0,0,1,.06-.69A2.14,2.14,0,0,1,558.81,398.28Z"/><path class="cls-16" d="M558.81,403.79a2.14,2.14,0,0,1-.06.69,1.85,1.85,0,0,1-.06-.69,1.78,1.78,0,0,1,.06-.68A2.05,2.05,0,0,1,558.81,403.79Z"/><path class="cls-16" d="M556.68,401a4,4,0,0,1-1.38,0,4,4,0,0,1,1.38,0Z"/><path class="cls-16" d="M560.82,401a1.82,1.82,0,0,1,.68-.06,1.85,1.85,0,0,1,.69.06,2.14,2.14,0,0,1-.69.06A2.1,2.1,0,0,1,560.82,401Z"/><path class="cls-16" d="M557.28,399.57s-.26-.17-.53-.44a2.39,2.39,0,0,1-.44-.53,2.09,2.09,0,0,1,.53.44C557.11,399.31,557.31,399.55,557.28,399.57Z"/><path class="cls-16" d="M560.21,402.5a2.39,2.39,0,0,1,.53.44c.27.27.47.51.44.53s-.26-.17-.53-.44A2.39,2.39,0,0,1,560.21,402.5Z"/><path class="cls-16" d="M557.28,402.5s-.17.26-.44.53-.51.47-.53.44a3.73,3.73,0,0,1,1-1Z"/><path class="cls-16" d="M560.21,399.57a2.39,2.39,0,0,1,.44-.53,2.09,2.09,0,0,1,.53-.44s-.17.26-.44.53S560.23,399.6,560.21,399.57Z"/><path class="cls-16" d="M557.62,398.52a.35.35,0,1,1,.11,0,2.28,2.28,0,0,1,.21.66A1.92,1.92,0,0,1,557.62,398.52Z"/><path class="cls-16" d="M559.88,403.55a2,2,0,0,1,.21.66,1.92,1.92,0,0,1-.32-.61.35.35,0,1,1,.11-.05Z"/><path class="cls-16" d="M556.18,402.06a2.14,2.14,0,0,1,.66-.22,2.06,2.06,0,0,1-.61.33.35.35,0,1,1-.05-.11Z"/><path class="cls-16" d="M561.31,400a2.19,2.19,0,0,1-.66.21,1.92,1.92,0,0,1,.61-.32,2.14,2.14,0,0,1,.66-.22A2.06,2.06,0,0,1,561.31,400Z"/><path class="cls-16" d="M556.83,400.26a2,2,0,0,1-.66-.2,2.34,2.34,0,0,1-.62-.32,2,2,0,0,1,.66.2A2.34,2.34,0,0,1,556.83,400.26Z"/><path class="cls-16" d="M560.67,401.81a4.25,4.25,0,0,1,1.27.52,2.08,2.08,0,0,1-.66-.2A2,2,0,0,1,560.67,401.81Z"/><path class="cls-16" d="M558,403a2.15,2.15,0,0,1-.2.66,2.18,2.18,0,0,1-.32.61,2,2,0,0,1,.21-.66A1.87,1.87,0,0,1,558,403Z"/><path class="cls-16" d="M560,397.84a2,2,0,0,1-.2.66,1.82,1.82,0,0,1-.32.62,1.9,1.9,0,0,1,.21-.66A2.16,2.16,0,0,1,560,397.84Z"/><path class="cls-16" d="M558.17,398.34a2.15,2.15,0,0,1-.07-.69,4,4,0,0,1,.26,1.35A1.74,1.74,0,0,1,558.17,398.34Z"/><path class="cls-16" d="M559.33,403.73a2.16,2.16,0,0,1,.07.69,1.74,1.74,0,0,1-.19-.66,1.87,1.87,0,0,1-.07-.69A2.3,2.3,0,0,1,559.33,403.73Z"/><path class="cls-16" d="M556,401.5a1.6,1.6,0,0,1,.68-.07,2.12,2.12,0,0,1-.66.18,1.64,1.64,0,0,1-.69.07A2.25,2.25,0,0,1,556,401.5Z"/><path class="cls-16" d="M561.47,400.58a2.16,2.16,0,0,1-.69.07,1.74,1.74,0,0,1,.66-.19,1.87,1.87,0,0,1,.69-.07A2.3,2.3,0,0,1,561.47,400.58Z"/><path class="cls-16" d="M557,399.87a1.87,1.87,0,0,1-.6-.33,2.06,2.06,0,0,1-.53-.44,2,2,0,0,1,.6.34A2.15,2.15,0,0,1,557,399.87Z"/><path class="cls-16" d="M560.46,402.2a1.87,1.87,0,0,1,.6.33c.32.22.56.41.54.44a1.79,1.79,0,0,1-.6-.34A1.88,1.88,0,0,1,560.46,402.2Z"/><path class="cls-16" d="M557.58,402.75a1.87,1.87,0,0,1-.33.6,1.81,1.81,0,0,1-.44.54,2.5,2.5,0,0,1,.34-.61A2.15,2.15,0,0,1,557.58,402.75Z"/><path class="cls-16" d="M559.91,399.32a1.79,1.79,0,0,1,.34-.6,2.31,2.31,0,0,1,.43-.54,1.89,1.89,0,0,1-.34.61A1.92,1.92,0,0,1,559.91,399.32Z"/><path class="cls-16" d="M557.59,399.32a2.64,2.64,0,0,1-.43-.54,2,2,0,0,1-.33-.61,2.07,2.07,0,0,1,.43.54A2,2,0,0,1,557.59,399.32Z"/><path class="cls-16" d="M559.9,402.76a1.92,1.92,0,0,1,.43.53,2,2,0,0,1,.33.61,2.09,2.09,0,0,1-.43-.54A1.87,1.87,0,0,1,559.9,402.76Z"/><path class="cls-16" d="M556.42,402.52a2,2,0,0,1,.61-.33,2.31,2.31,0,0,1-.54.43,2,2,0,0,1-.61.33A2.64,2.64,0,0,1,556.42,402.52Z"/><path class="cls-16" d="M561.07,399.55a1.87,1.87,0,0,1-.6.33,2.09,2.09,0,0,1,.54-.43.35.35,0,1,1,.06.1Z"/><path class="cls-16" d="M556.71,400.63a1.82,1.82,0,0,1-.68-.07,2,2,0,0,1-.66-.19,1.82,1.82,0,0,1,.68.07A2.3,2.3,0,0,1,556.71,400.63Z"/><path class="cls-16" d="M560.78,401.44a2.11,2.11,0,0,1,.68.07,2,2,0,0,1,.67.2,2.35,2.35,0,0,1-.69-.08A2,2,0,0,1,560.78,401.44Z"/><path class="cls-16" d="M558.34,403.07a1.82,1.82,0,0,1-.07.68,2.09,2.09,0,0,1-.19.67,1.86,1.86,0,0,1,.07-.69A2.3,2.3,0,0,1,558.34,403.07Z"/><path class="cls-16" d="M559.15,399a2.11,2.11,0,0,1,.07-.68,1.86,1.86,0,0,1,.2-.66,4.21,4.21,0,0,1-.27,1.34Z"/><path class="cls-22" d="M556.47,401a2.28,2.28,0,1,0,2.28-2.28A2.28,2.28,0,0,0,556.47,401Z"/><path class="cls-23" d="M556.84,401a1.91,1.91,0,1,0,1.91-1.91A1.9,1.9,0,0,0,556.84,401Z"/><circle class="cls-12" cx="558.75" cy="401.04" r="1.53"/><circle class="cls-22" cx="558.75" cy="401.04" r="1.35"/><path class="cls-23" d="M557.71,401a1,1,0,1,0,1-1A1,1,0,0,0,557.71,401Z"/><path class="cls-16" d="M527.57,401a3.59,3.59,0,1,0,3.59-3.59A3.59,3.59,0,0,0,527.57,401Z"/><path class="cls-21" d="M527.57,401a3.59,3.59,0,1,0,3.59-3.59A3.59,3.59,0,0,0,527.57,401Z"/><path class="cls-21" d="M527.57,401a3.59,3.59,0,1,0,3.59-3.59A3.59,3.59,0,0,0,527.57,401Z"/><path class="cls-16" d="M531.22,398.28a2.05,2.05,0,0,1-.06.68,1.78,1.78,0,0,1-.06-.68,1.85,1.85,0,0,1,.06-.69A2.14,2.14,0,0,1,531.22,398.28Z"/><path class="cls-16" d="M531.22,403.79a2.14,2.14,0,0,1-.06.69,1.85,1.85,0,0,1-.06-.69,1.78,1.78,0,0,1,.06-.68A2.05,2.05,0,0,1,531.22,403.79Z"/><path class="cls-16" d="M529.09,401a4,4,0,0,1-1.38,0,4,4,0,0,1,1.38,0Z"/><path class="cls-16" d="M533.23,401a1.85,1.85,0,0,1,.69-.06,1.78,1.78,0,0,1,.68.06,2.05,2.05,0,0,1-.68.06A2.14,2.14,0,0,1,533.23,401Z"/><path class="cls-16" d="M529.69,399.57s-.26-.17-.53-.44a2.39,2.39,0,0,1-.44-.53,2.09,2.09,0,0,1,.53.44C529.52,399.31,529.72,399.55,529.69,399.57Z"/><path class="cls-16" d="M532.62,402.5a2.16,2.16,0,0,1,.53.44c.27.27.47.51.44.53s-.26-.17-.52-.44A2.28,2.28,0,0,1,532.62,402.5Z"/><ellipse class="cls-16" cx="529.21" cy="402.99" rx="0.69" ry="0.06" transform="translate(-129.95 492.24) rotate(-45)"/><path class="cls-16" d="M532.62,399.57a2.28,2.28,0,0,1,.45-.53,2,2,0,0,1,.52-.44s-.17.26-.44.53S532.65,399.6,532.62,399.57Z"/><path class="cls-16" d="M530,398.52a.35.35,0,1,1,.11,0,2,2,0,0,1,.21.66A1.92,1.92,0,0,1,530,398.52Z"/><path class="cls-16" d="M532.29,403.55a2,2,0,0,1,.21.66,2.18,2.18,0,0,1-.32-.61,1.67,1.67,0,0,1-.21-.66A2.18,2.18,0,0,1,532.29,403.55Z"/><path class="cls-16" d="M528.59,402.06a2.14,2.14,0,0,1,.66-.22,2.06,2.06,0,0,1-.61.33,1.94,1.94,0,0,1-.65.21A1.67,1.67,0,0,1,528.59,402.06Z"/><path class="cls-16" d="M533.72,400a2.19,2.19,0,0,1-.66.21,1.92,1.92,0,0,1,.61-.32,2.14,2.14,0,0,1,.66-.22A2.06,2.06,0,0,1,533.72,400Z"/><path class="cls-16" d="M529.24,400.26a2.08,2.08,0,0,1-.66-.2,2.34,2.34,0,0,1-.62-.32,2,2,0,0,1,.66.2A2.15,2.15,0,0,1,529.24,400.26Z"/><path class="cls-16" d="M533.08,401.81a4.25,4.25,0,0,1,1.27.52,2.08,2.08,0,0,1-.66-.2A2,2,0,0,1,533.08,401.81Z"/><path class="cls-16" d="M530.38,403a2.15,2.15,0,0,1-.2.66,1.71,1.71,0,0,1-.32.61,2,2,0,0,1,.21-.66A1.87,1.87,0,0,1,530.38,403Z"/><path class="cls-16" d="M532.45,397.84a2,2,0,0,1-.2.66,2.16,2.16,0,0,1-.31.62,1.56,1.56,0,0,1,.2-.66A2.16,2.16,0,0,1,532.45,397.84Z"/><path class="cls-16" d="M530.58,398.34a2.15,2.15,0,0,1-.07-.69,4,4,0,0,1,.26,1.35A1.74,1.74,0,0,1,530.58,398.34Z"/><path class="cls-16" d="M531.74,403.73a2.16,2.16,0,0,1,.07.69,1.74,1.74,0,0,1-.19-.66,1.87,1.87,0,0,1-.07-.69A2.3,2.3,0,0,1,531.74,403.73Z"/><path class="cls-16" d="M528.44,401.5a1.6,1.6,0,0,1,.68-.07,2.12,2.12,0,0,1-.66.18,1.64,1.64,0,0,1-.69.07A2.25,2.25,0,0,1,528.44,401.5Z"/><path class="cls-16" d="M533.88,400.58a2.15,2.15,0,0,1-.69.07,4,4,0,0,1,1.35-.26A2.3,2.3,0,0,1,533.88,400.58Z"/><path class="cls-16" d="M529.44,399.87a2,2,0,0,1-.6-.33,2.06,2.06,0,0,1-.53-.44,1.9,1.9,0,0,1,.6.34A2.15,2.15,0,0,1,529.44,399.87Z"/><path class="cls-16" d="M532.87,402.2a1.87,1.87,0,0,1,.6.33c.32.22.56.41.54.44a1.79,1.79,0,0,1-.6-.34A1.88,1.88,0,0,1,532.87,402.2Z"/><path class="cls-16" d="M530,402.75a1.87,1.87,0,0,1-.33.6,1.81,1.81,0,0,1-.44.54,2.5,2.5,0,0,1,.34-.61A2.15,2.15,0,0,1,530,402.75Z"/><path class="cls-16" d="M532.32,399.32a1.79,1.79,0,0,1,.34-.6,2.31,2.31,0,0,1,.43-.54,2,2,0,0,1-.33.61A2.06,2.06,0,0,1,532.32,399.32Z"/><path class="cls-16" d="M530,399.32a2.21,2.21,0,0,1-.44-.54,2,2,0,0,1-.33-.61,2.07,2.07,0,0,1,.43.54A2.5,2.5,0,0,1,530,399.32Z"/><path class="cls-16" d="M532.31,402.76a1.92,1.92,0,0,1,.43.53,2,2,0,0,1,.33.61,2.09,2.09,0,0,1-.43-.54A1.87,1.87,0,0,1,532.31,402.76Z"/><path class="cls-16" d="M528.83,402.52a2,2,0,0,1,.61-.33,2.07,2.07,0,0,1-.54.43,2,2,0,0,1-.61.33A2.64,2.64,0,0,1,528.83,402.52Z"/><path class="cls-16" d="M533.48,399.55a1.87,1.87,0,0,1-.6.33,2.09,2.09,0,0,1,.54-.43.35.35,0,1,1,.06.1Z"/><path class="cls-16" d="M529.13,400.63a1.86,1.86,0,0,1-.69-.07,2,2,0,0,1-.66-.19,1.82,1.82,0,0,1,.68.07A2.44,2.44,0,0,1,529.13,400.63Z"/><path class="cls-16" d="M533.19,401.44a2.1,2.1,0,0,1,.68.07,2,2,0,0,1,.67.2,2.35,2.35,0,0,1-.69-.08A2,2,0,0,1,533.19,401.44Z"/><path class="cls-16" d="M530.76,403.07a2.32,2.32,0,0,1-.08.68,2.09,2.09,0,0,1-.19.67,2.15,2.15,0,0,1,.07-.69A1.86,1.86,0,0,1,530.76,403.07Z"/><path class="cls-16" d="M531.56,399a2.11,2.11,0,0,1,.07-.68,1.86,1.86,0,0,1,.2-.66,4.21,4.21,0,0,1-.27,1.34Z"/><path class="cls-22" d="M528.88,401a2.28,2.28,0,1,0,2.28-2.28A2.28,2.28,0,0,0,528.88,401Z"/><path class="cls-23" d="M529.25,401a1.91,1.91,0,1,0,1.91-1.91A1.9,1.9,0,0,0,529.25,401Z"/><path class="cls-12" d="M529.62,401a1.54,1.54,0,1,0,1.54-1.54A1.54,1.54,0,0,0,529.62,401Z"/><path class="cls-22" d="M529.81,401a1.35,1.35,0,1,0,1.35-1.35A1.35,1.35,0,0,0,529.81,401Z"/><path class="cls-23" d="M530.12,401a1,1,0,1,0,1-1A1,1,0,0,0,530.12,401Z"/><path class="cls-16" d="M535.37,401a3.59,3.59,0,1,0,3.59-3.59A3.59,3.59,0,0,0,535.37,401Z"/><path class="cls-21" d="M535.37,401a3.59,3.59,0,1,0,3.59-3.59A3.59,3.59,0,0,0,535.37,401Z"/><path class="cls-21" d="M535.37,401a3.59,3.59,0,1,0,3.59-3.59A3.59,3.59,0,0,0,535.37,401Z"/><path class="cls-16" d="M539,398.28a.34.34,0,1,1-.12,0,.35.35,0,1,1,.12,0Z"/><path class="cls-16" d="M539,403.79a.35.35,0,1,1-.12,0,.34.34,0,1,1,.12,0Z"/><path class="cls-16" d="M536.89,401a4,4,0,0,1-1.38,0,4,4,0,0,1,1.38,0Z"/><path class="cls-16" d="M541,401a1.85,1.85,0,0,1,.69-.06,1.78,1.78,0,0,1,.68.06,2.05,2.05,0,0,1-.68.06A2.14,2.14,0,0,1,541,401Z"/><path class="cls-16" d="M537.49,399.57s-.26-.17-.52-.44a2.28,2.28,0,0,1-.45-.53,1.92,1.92,0,0,1,.53.44C537.32,399.31,537.52,399.55,537.49,399.57Z"/><path class="cls-16" d="M540.42,402.5a2.16,2.16,0,0,1,.53.44,2.28,2.28,0,0,1,.45.53s-.26-.17-.53-.44A2.28,2.28,0,0,1,540.42,402.5Z"/><path class="cls-16" d="M537.49,402.5s-.17.26-.44.53-.5.47-.53.44a2.28,2.28,0,0,1,.45-.53A2.23,2.23,0,0,1,537.49,402.5Z"/><path class="cls-16" d="M540.42,399.57a2.28,2.28,0,0,1,.45-.53,1.92,1.92,0,0,1,.53-.44,2.28,2.28,0,0,1-.45.53C540.68,399.4,540.45,399.6,540.42,399.57Z"/><path class="cls-16" d="M537.83,398.52a1.9,1.9,0,0,1-.21-.66,2.18,2.18,0,0,1,.32.61,2,2,0,0,1,.21.66A2.18,2.18,0,0,1,537.83,398.52Z"/><path class="cls-16" d="M540.09,403.55a2,2,0,0,1,.21.66,2.18,2.18,0,0,1-.32-.61,1.9,1.9,0,0,1-.21-.66A2.18,2.18,0,0,1,540.09,403.55Z"/><path class="cls-16" d="M536.4,402.06a2.13,2.13,0,0,1,.65-.22,1.9,1.9,0,0,1-.61.33,1.94,1.94,0,0,1-.65.21A1.78,1.78,0,0,1,536.4,402.06Z"/><path class="cls-16" d="M541.52,400a2.27,2.27,0,0,1-.65.21,1.78,1.78,0,0,1,.61-.32,2.13,2.13,0,0,1,.65-.22A2.06,2.06,0,0,1,541.52,400Z"/><path class="cls-16" d="M537,400.26a2.08,2.08,0,0,1-.66-.2,2,2,0,0,1-.61-.32,2.15,2.15,0,0,1,.66.2A2.18,2.18,0,0,1,537,400.26Z"/><path class="cls-16" d="M540.88,401.81a2,2,0,0,1,.66.21,1.87,1.87,0,0,1,.61.31,2.08,2.08,0,0,1-.66-.2A2.18,2.18,0,0,1,540.88,401.81Z"/><path class="cls-16" d="M538.18,403a2.15,2.15,0,0,1-.2.66,2,2,0,0,1-.31.61,2.08,2.08,0,0,1,.2-.66A1.87,1.87,0,0,1,538.18,403Z"/><path class="cls-16" d="M540.25,397.84a2,2,0,0,1-.2.66,2.16,2.16,0,0,1-.31.62,2,2,0,0,1,.2-.66A2.16,2.16,0,0,1,540.25,397.84Z"/><path class="cls-16" d="M538.38,398.34a2.15,2.15,0,0,1-.07-.69,4,4,0,0,1,.26,1.35A2,2,0,0,1,538.38,398.34Z"/><path class="cls-16" d="M539.54,403.73a2.16,2.16,0,0,1,.07.69,2,2,0,0,1-.19-.66,2.16,2.16,0,0,1-.07-.69A2,2,0,0,1,539.54,403.73Z"/><path class="cls-16" d="M536.24,401.5a1.64,1.64,0,0,1,.69-.07,2.37,2.37,0,0,1-.67.18,1.6,1.6,0,0,1-.68.07A2.12,2.12,0,0,1,536.24,401.5Z"/><path class="cls-16" d="M541.68,400.58a2.15,2.15,0,0,1-.69.07,4,4,0,0,1,1.35-.26A2.3,2.3,0,0,1,541.68,400.58Z"/><path class="cls-16" d="M537.25,399.87a2,2,0,0,1-.61-.33,2.06,2.06,0,0,1-.53-.44,1.79,1.79,0,0,1,.6.34A2.64,2.64,0,0,1,537.25,399.87Z"/><path class="cls-16" d="M540.67,402.2a2,2,0,0,1,.61.33,2.06,2.06,0,0,1,.53.44,1.79,1.79,0,0,1-.6-.34A1.88,1.88,0,0,1,540.67,402.2Z"/><path class="cls-16" d="M537.8,402.75a2.35,2.35,0,0,1-.34.6,2.09,2.09,0,0,1-.43.54,2,2,0,0,1,.33-.61A1.85,1.85,0,0,1,537.8,402.75Z"/><path class="cls-16" d="M540.12,399.32a1.79,1.79,0,0,1,.34-.6,2.64,2.64,0,0,1,.43-.54,2,2,0,0,1-.33.61A2.06,2.06,0,0,1,540.12,399.32Z"/><path class="cls-16" d="M537.81,399.32a2.5,2.5,0,0,1-.44-.54,2.27,2.27,0,0,1-.33-.61,2.07,2.07,0,0,1,.43.54A2.15,2.15,0,0,1,537.81,399.32Z"/><path class="cls-16" d="M540.11,402.76a1.92,1.92,0,0,1,.43.53,2.5,2.5,0,0,1,.34.61,1.81,1.81,0,0,1-.44-.54A1.87,1.87,0,0,1,540.11,402.76Z"/><path class="cls-16" d="M536.63,402.52a2,2,0,0,1,.61-.33,4.06,4.06,0,0,1-1.14.76A2.15,2.15,0,0,1,536.63,402.52Z"/><path class="cls-16" d="M541.28,399.55a1.87,1.87,0,0,1-.6.33,2.09,2.09,0,0,1,.54-.43.35.35,0,1,1,.06.1Z"/><path class="cls-16" d="M536.93,400.63a1.86,1.86,0,0,1-.69-.07,2,2,0,0,1-.66-.19,1.87,1.87,0,0,1,.69.07A2.44,2.44,0,0,1,536.93,400.63Z"/><path class="cls-16" d="M541,401.44a2.16,2.16,0,0,1,.69.07,1.86,1.86,0,0,1,.66.2,2.38,2.38,0,0,1-.69-.08A2,2,0,0,1,541,401.44Z"/><path class="cls-16" d="M538.56,403.07a2,2,0,0,1-.08.68,2.09,2.09,0,0,1-.19.67,2.15,2.15,0,0,1,.07-.69A1.86,1.86,0,0,1,538.56,403.07Z"/><path class="cls-16" d="M539.36,399a4.21,4.21,0,1,1,.19-.66A2,2,0,0,1,539.36,399Z"/><path class="cls-22" d="M536.68,401a2.28,2.28,0,1,0,2.28-2.28A2.28,2.28,0,0,0,536.68,401Z"/><path class="cls-23" d="M537.05,401a1.91,1.91,0,1,0,1.91-1.91A1.91,1.91,0,0,0,537.05,401Z"/><path class="cls-12" d="M537.42,401A1.54,1.54,0,1,0,539,399.5,1.54,1.54,0,0,0,537.42,401Z"/><path class="cls-22" d="M537.61,401a1.35,1.35,0,1,0,1.35-1.35A1.35,1.35,0,0,0,537.61,401Z"/><path class="cls-23" d="M537.92,401a1,1,0,1,0,1-1A1,1,0,0,0,537.92,401Z"/><circle class="cls-16" cx="503.29" cy="401.04" r="3.59"/><circle class="cls-21" cx="503.29" cy="401.04" r="3.59"/><circle class="cls-21" cx="503.29" cy="401.04" r="3.59"/><path class="cls-16" d="M503.35,398.28a.34.34,0,1,1-.12,0,.35.35,0,1,1,.12,0Z"/><path class="cls-16" d="M503.35,403.79a.35.35,0,1,1-.12,0,.34.34,0,1,1,.12,0Z"/><path class="cls-16" d="M501.22,401a4,4,0,0,1-1.38,0,4,4,0,0,1,1.38,0Z"/><path class="cls-16" d="M505.36,401a1.85,1.85,0,0,1,.69-.06,1.78,1.78,0,0,1,.68.06,2.05,2.05,0,0,1-.68.06A2.14,2.14,0,0,1,505.36,401Z"/><path class="cls-16" d="M501.82,399.57s-.26-.17-.52-.44a2.28,2.28,0,0,1-.45-.53,1.92,1.92,0,0,1,.53.44C501.65,399.31,501.85,399.55,501.82,399.57Z"/><ellipse class="cls-16" cx="505.24" cy="402.99" rx="0.06" ry="0.69" transform="translate(-136.97 475.29) rotate(-45)"/><path class="cls-16" d="M501.82,402.5s-.17.26-.44.53-.5.47-.53.44a2.28,2.28,0,0,1,.45-.53A2.23,2.23,0,0,1,501.82,402.5Z"/><path class="cls-16" d="M504.75,399.57a2.28,2.28,0,0,1,.45-.53,2,2,0,0,1,.52-.44s-.17.26-.44.53S504.78,399.6,504.75,399.57Z"/><path class="cls-16" d="M502.16,398.52a1.67,1.67,0,0,1-.21-.66,2.18,2.18,0,0,1,.32.61,2,2,0,0,1,.21.66A2.18,2.18,0,0,1,502.16,398.52Z"/><path class="cls-16" d="M504.42,403.55a2,2,0,0,1,.21.66,2.18,2.18,0,0,1-.32-.61,1.9,1.9,0,0,1-.21-.66A2.18,2.18,0,0,1,504.42,403.55Z"/><path class="cls-16" d="M500.73,402.06a.35.35,0,1,1,0,.11,1.94,1.94,0,0,1-.65.21A1.78,1.78,0,0,1,500.73,402.06Z"/><path class="cls-16" d="M505.85,400a2.27,2.27,0,0,1-.65.21,1.8,1.8,0,0,1,.6-.32,2.14,2.14,0,0,1,.66-.22A2.06,2.06,0,0,1,505.85,400Z"/><path class="cls-16" d="M501.37,400.26a2.08,2.08,0,0,1-.66-.2,2,2,0,0,1-.61-.32,2.06,2.06,0,0,1,.65.2A2.15,2.15,0,0,1,501.37,400.26Z"/><path class="cls-16" d="M505.21,401.81a2,2,0,0,1,.66.21,2,2,0,0,1,.61.31,2.08,2.08,0,0,1-.66-.2A2.18,2.18,0,0,1,505.21,401.81Z"/><path class="cls-16" d="M502.51,403a2.15,2.15,0,0,1-.2.66,2,2,0,0,1-.31.61,1.6,1.6,0,0,1,.2-.66A1.87,1.87,0,0,1,502.51,403Z"/><path class="cls-16" d="M504.58,397.84a2,2,0,0,1-.2.66,2.16,2.16,0,0,1-.31.62,2,2,0,0,1,.2-.66A2.16,2.16,0,0,1,504.58,397.84Z"/><path class="cls-16" d="M502.71,398.34a2.15,2.15,0,0,1-.07-.69,4,4,0,0,1,.26,1.35A2,2,0,0,1,502.71,398.34Z"/><path class="cls-16" d="M503.87,403.73a2.16,2.16,0,0,1,.07.69,1.74,1.74,0,0,1-.19-.66,2.16,2.16,0,0,1-.07-.69A2,2,0,0,1,503.87,403.73Z"/><path class="cls-16" d="M500.57,401.5a1.6,1.6,0,0,1,.68-.07,2.12,2.12,0,0,1-.66.18,1.64,1.64,0,0,1-.69.07A2.37,2.37,0,0,1,500.57,401.5Z"/><path class="cls-16" d="M506,400.58a2.15,2.15,0,0,1-.69.07,4,4,0,0,1,1.35-.26A2.3,2.3,0,0,1,506,400.58Z"/><path class="cls-16" d="M501.57,399.87a2.12,2.12,0,0,1-.6-.33,2.06,2.06,0,0,1-.53-.44,1.79,1.79,0,0,1,.6.34A2.15,2.15,0,0,1,501.57,399.87Z"/><path class="cls-16" d="M505,402.2a2,2,0,0,1,.61.33,2.06,2.06,0,0,1,.53.44,1.79,1.79,0,0,1-.6-.34A1.88,1.88,0,0,1,505,402.2Z"/><path class="cls-16" d="M502.13,402.75a2.35,2.35,0,0,1-.34.6,1.81,1.81,0,0,1-.44.54,2.5,2.5,0,0,1,.34-.61A1.85,1.85,0,0,1,502.13,402.75Z"/><path class="cls-16" d="M504.45,399.32a1.79,1.79,0,0,1,.34-.6,2.64,2.64,0,0,1,.43-.54,2,2,0,0,1-.33.61A2.06,2.06,0,0,1,504.45,399.32Z"/><path class="cls-16" d="M502.14,399.32a2.5,2.5,0,0,1-.44-.54,2,2,0,0,1-.33-.61,2.07,2.07,0,0,1,.43.54A2.15,2.15,0,0,1,502.14,399.32Z"/><path class="cls-16" d="M504.44,402.76a1.92,1.92,0,0,1,.43.53,2.5,2.5,0,0,1,.34.61,1.81,1.81,0,0,1-.44-.54A1.87,1.87,0,0,1,504.44,402.76Z"/><path class="cls-16" d="M501,402.52a2,2,0,0,1,.61-.33,1.88,1.88,0,0,1-.54.43,2.12,2.12,0,0,1-.6.33A2.15,2.15,0,0,1,501,402.52Z"/><path class="cls-16" d="M505.61,399.55a1.87,1.87,0,0,1-.6.33,2.09,2.09,0,0,1,.54-.43.35.35,0,1,1,.06.1Z"/><path class="cls-16" d="M501.26,400.63a1.86,1.86,0,0,1-.69-.07,2,2,0,0,1-.66-.19,1.81,1.81,0,0,1,.68.07A2.44,2.44,0,0,1,501.26,400.63Z"/><path class="cls-16" d="M505.32,401.44a2.16,2.16,0,0,1,.69.07,2,2,0,0,1,.66.2,2.35,2.35,0,0,1-.69-.08A2,2,0,0,1,505.32,401.44Z"/><path class="cls-16" d="M502.89,403.07a2,2,0,0,1-.08.68,2.09,2.09,0,0,1-.19.67,2.15,2.15,0,0,1,.07-.69A1.86,1.86,0,0,1,502.89,403.07Z"/><path class="cls-16" d="M503.69,399a2,2,0,0,1,.08-.68,1.74,1.74,0,0,1,.19-.66,4.21,4.21,0,0,1-.27,1.34Z"/><circle class="cls-22" cx="503.29" cy="401.04" r="2.27"/><path class="cls-23" d="M501.38,401a1.91,1.91,0,1,0,1.91-1.91A1.91,1.91,0,0,0,501.38,401Z"/><circle class="cls-12" cx="503.29" cy="401.04" r="1.53"/><circle class="cls-22" cx="503.29" cy="401.04" r="1.35"/><path class="cls-23" d="M502.25,401a1,1,0,1,0,1-1A1,1,0,0,0,502.25,401Z"/><circle class="cls-16" cx="495.32" cy="401.04" r="3.59"/><circle class="cls-21" cx="495.32" cy="401.04" r="3.59"/><circle class="cls-21" cx="495.32" cy="401.04" r="3.59"/><path class="cls-16" d="M495.38,398.28a.34.34,0,1,1-.12,0,.35.35,0,1,1,.12,0Z"/><path class="cls-16" d="M495.38,403.79a.35.35,0,1,1-.12,0,.34.34,0,1,1,.12,0Z"/><path class="cls-16" d="M493.25,401a4,4,0,0,1-1.38,0,4,4,0,0,1,1.38,0Z"/><path class="cls-16" d="M497.39,401a4,4,0,0,1,1.38,0,4,4,0,0,1-1.38,0Z"/><path class="cls-16" d="M493.86,399.57s-.26-.17-.53-.44a2.28,2.28,0,0,1-.45-.53,1.92,1.92,0,0,1,.53.44A2.28,2.28,0,0,1,493.86,399.57Z"/><ellipse class="cls-16" cx="497.27" cy="402.99" rx="0.06" ry="0.69" transform="translate(-139.31 469.66) rotate(-45)"/><path class="cls-16" d="M493.86,402.5a2.28,2.28,0,0,1-.45.53c-.27.27-.5.47-.53.44a2.28,2.28,0,0,1,.45-.53A2.16,2.16,0,0,1,493.86,402.5Z"/><path class="cls-16" d="M496.78,399.57a2.28,2.28,0,0,1,.45-.53,1.92,1.92,0,0,1,.53-.44,2.28,2.28,0,0,1-.45.53C497,399.4,496.81,399.6,496.78,399.57Z"/><path class="cls-16" d="M494.19,398.52a1.9,1.9,0,0,1-.21-.66,2.18,2.18,0,0,1,.32.61,2,2,0,0,1,.21.66A2.18,2.18,0,0,1,494.19,398.52Z"/><path class="cls-16" d="M496.45,403.55a2,2,0,0,1,.21.66,2.18,2.18,0,0,1-.32-.61,1.9,1.9,0,0,1-.21-.66A2.18,2.18,0,0,1,496.45,403.55Z"/><path class="cls-16" d="M492.76,402.06a2.13,2.13,0,0,1,.65-.22,1.9,1.9,0,0,1-.61.33,1.94,1.94,0,0,1-.65.21A1.78,1.78,0,0,1,492.76,402.06Z"/><path class="cls-16" d="M497.88,400a2.27,2.27,0,0,1-.65.21,1.78,1.78,0,0,1,.61-.32,2.13,2.13,0,0,1,.65-.22A1.9,1.9,0,0,1,497.88,400Z"/><path class="cls-16" d="M493.4,400.26a2.08,2.08,0,0,1-.66-.2,2,2,0,0,1-.61-.32,2.15,2.15,0,0,1,.66.2A2.18,2.18,0,0,1,493.4,400.26Z"/><path class="cls-16" d="M497.24,401.81a2,2,0,0,1,.66.21,1.87,1.87,0,0,1,.61.31,2.15,2.15,0,0,1-.66-.2A2.18,2.18,0,0,1,497.24,401.81Z"/><path class="cls-16" d="M494.54,403a2.15,2.15,0,0,1-.2.66,2,2,0,0,1-.31.61,2.08,2.08,0,0,1,.2-.66A1.87,1.87,0,0,1,494.54,403Z"/><path class="cls-16" d="M496.61,397.84a2,2,0,0,1-.2.66,2.16,2.16,0,0,1-.31.62,2,2,0,0,1,.2-.66A2.16,2.16,0,0,1,496.61,397.84Z"/><path class="cls-16" d="M494.74,398.34a2.15,2.15,0,0,1-.07-.69,4,4,0,0,1,.26,1.35A2,2,0,0,1,494.74,398.34Z"/><path class="cls-16" d="M495.9,403.73a2.16,2.16,0,0,1,.07.69,2,2,0,0,1-.19-.66,2.16,2.16,0,0,1-.07-.69A2,2,0,0,1,495.9,403.73Z"/><path class="cls-16" d="M492.6,401.5a1.64,1.64,0,0,1,.69-.07,2.25,2.25,0,0,1-.67.18,1.6,1.6,0,0,1-.68.07A2.12,2.12,0,0,1,492.6,401.5Z"/><path class="cls-16" d="M498,400.58a2.15,2.15,0,0,1-.69.07,4,4,0,0,1,1.35-.26A2.3,2.3,0,0,1,498,400.58Z"/><path class="cls-16" d="M493.61,399.87a2,2,0,0,1-.61-.33,2.06,2.06,0,0,1-.53-.44,1.79,1.79,0,0,1,.6.34A2.34,2.34,0,0,1,493.61,399.87Z"/><path class="cls-16" d="M497,402.2a2,2,0,0,1,.61.33,2.06,2.06,0,0,1,.53.44,1.79,1.79,0,0,1-.6-.34A2.07,2.07,0,0,1,497,402.2Z"/><path class="cls-16" d="M494.16,402.75a2.35,2.35,0,0,1-.34.6,2.09,2.09,0,0,1-.43.54,2,2,0,0,1,.33-.61A1.85,1.85,0,0,1,494.16,402.75Z"/><path class="cls-16" d="M496.48,399.32a2.35,2.35,0,0,1,.34-.6,2.64,2.64,0,0,1,.43-.54,2,2,0,0,1-.33.61A1.85,1.85,0,0,1,496.48,399.32Z"/><path class="cls-16" d="M494.17,399.32a2.31,2.31,0,0,1-.43-.54,2.15,2.15,0,0,1-.34-.61,2.23,2.23,0,0,1,.44.54A2,2,0,0,1,494.17,399.32Z"/><path class="cls-16" d="M496.47,402.76a1.92,1.92,0,0,1,.43.53,2.15,2.15,0,0,1,.34.61s-.22-.22-.44-.54A1.87,1.87,0,0,1,496.47,402.76Z"/><path class="cls-16" d="M493,402.52a2,2,0,0,1,.61-.33,4.06,4.06,0,0,1-1.14.76A2.15,2.15,0,0,1,493,402.52Z"/><path class="cls-16" d="M497.65,399.55a2,2,0,0,1-.61.33,2.09,2.09,0,0,1,.54-.43,1.87,1.87,0,0,1,.6-.33A1.92,1.92,0,0,1,497.65,399.55Z"/><path class="cls-16" d="M493.29,400.63a1.86,1.86,0,0,1-.69-.07,2,2,0,0,1-.66-.19,1.87,1.87,0,0,1,.69.07A2.44,2.44,0,0,1,493.29,400.63Z"/><path class="cls-16" d="M497.35,401.44a2.15,2.15,0,0,1,.69.07,1.86,1.86,0,0,1,.66.2,2.38,2.38,0,0,1-.69-.08A2.08,2.08,0,0,1,497.35,401.44Z"/><path class="cls-16" d="M494.92,403.07a2,2,0,0,1-.08.68,2.09,2.09,0,0,1-.19.67,2,2,0,0,1,.08-.69A2,2,0,0,1,494.92,403.07Z"/><path class="cls-16" d="M495.72,399a4.21,4.21,0,1,1,.19-.66A2,2,0,0,1,495.72,399Z"/><path class="cls-22" d="M493.05,401a2.28,2.28,0,1,0,2.27-2.28A2.27,2.27,0,0,0,493.05,401Z"/><path class="cls-23" d="M493.41,401a1.91,1.91,0,1,0,1.91-1.91A1.91,1.91,0,0,0,493.41,401Z"/><circle class="cls-12" cx="495.32" cy="401.04" r="1.53"/><circle class="cls-22" cx="495.32" cy="401.04" r="1.35"/><path class="cls-23" d="M494.28,401a1,1,0,1,0,1-1A1,1,0,0,0,494.28,401Z"/><rect class="cls-16" x="490.66" y="399.62" width="0.37" height="3.58" transform="translate(981.7 802.83) rotate(180)"/><path class="cls-24" d="M561.79,378.22h-9.87v3.11h12.66a.36.36,0,0,0,.26-.62S563.57,378.22,561.79,378.22Z"/><path class="cls-14" d="M563.23,400.13l.16,0c-.72-2.88-2.46-4.38-5.63-4.85V382h-.17v13.35h.07C560.8,395.85,562.52,397.31,563.23,400.13Z"/><rect class="cls-25" x="563.21" y="398.48" width="2.89" height="2.89" transform="translate(1129.32 799.85) rotate(180)"/><rect class="cls-20" x="550.88" y="401.24" width="2.08" height="0.46" transform="translate(1103.85 802.93) rotate(180)"/><path class="cls-13" d="M553.8,380.46a.42.42,0,0,1-.84,0,.42.42,0,1,1,.84,0Z"/><circle class="cls-13" cx="554.59" cy="380.46" r="0.42"/><path class="cls-13" d="M556.21,380.46a.41.41,0,0,1-.41.41.41.41,0,0,1-.42-.41.42.42,0,0,1,.42-.42A.41.41,0,0,1,556.21,380.46Z"/><rect class="cls-14" x="557.4" y="382.04" width="0.52" height="4.94" transform="translate(1115.33 769.02) rotate(180)"/><rect class="cls-13" x="545.76" y="396.55" width="1.07" height="0.32" transform="translate(1092.58 793.41) rotate(180)"/><rect class="cls-13" x="526.72" y="396.55" width="1.07" height="0.32" transform="translate(1054.51 793.41) rotate(180)"/><rect class="cls-13" x="507.68" y="396.55" width="1.07" height="0.32" transform="translate(1016.44 793.41) rotate(180)"/><rect class="cls-13" x="488.65" y="396.55" width="1.07" height="0.32" transform="translate(978.37 793.41) rotate(180)"/><rect class="cls-17" x="546.8" y="375.12" width="0.55" height="20.88" transform="translate(1094.15 771.11) rotate(180)"/><rect class="cls-17" x="545.64" y="375.12" width="0.55" height="20.88" transform="translate(1091.82 771.11) rotate(180)"/><rect class="cls-17" x="544.47" y="375.12" width="0.55" height="20.88" transform="translate(1089.5 771.11) rotate(180)"/><rect class="cls-17" x="543.31" y="375.12" width="0.55" height="20.88" transform="translate(1087.17 771.11) rotate(180)"/><rect class="cls-17" x="542.15" y="375.12" width="0.55" height="20.88" transform="translate(1084.84 771.11) rotate(180)"/><rect class="cls-17" x="540.98" y="375.12" width="0.55" height="20.88" transform="translate(1082.52 771.11) rotate(180)"/><rect class="cls-17" x="539.82" y="375.12" width="0.55" height="20.88" transform="translate(1080.19 771.11) rotate(180)"/><rect class="cls-17" x="538.66" y="375.12" width="0.55" height="20.88" transform="translate(1077.87 771.11) rotate(180)"/><rect class="cls-17" x="537.49" y="375.12" width="0.55" height="20.88" transform="translate(1075.54 771.11) rotate(180)"/><rect class="cls-17" x="536.33" y="375.12" width="0.55" height="20.88" transform="translate(1073.21 771.11) rotate(180)"/><rect class="cls-17" x="535.17" y="375.12" width="0.55" height="20.88" transform="translate(1070.89 771.11) rotate(180)"/><rect class="cls-17" x="534.01" y="375.12" width="0.55" height="20.88" transform="translate(1068.56 771.11) rotate(180)"/><rect class="cls-17" x="532.84" y="375.12" width="0.55" height="20.88" transform="translate(1066.24 771.11) rotate(180)"/><rect class="cls-17" x="531.68" y="375.12" width="0.55" height="20.88" transform="translate(1063.91 771.11) rotate(180)"/><rect class="cls-17" x="530.52" y="375.12" width="0.55" height="20.88" transform="translate(1061.58 771.11) rotate(180)"/><rect class="cls-17" x="529.35" y="375.12" width="0.55" height="20.88" transform="translate(1059.26 771.11) rotate(180)"/><rect class="cls-17" x="528.19" y="375.12" width="0.55" height="20.88" transform="translate(1056.93 771.11) rotate(180)"/><rect class="cls-17" x="527.03" y="375.12" width="0.55" height="20.88" transform="translate(1054.61 771.11) rotate(180)"/><rect class="cls-17" x="525.86" y="375.12" width="0.55" height="20.88" transform="translate(1052.28 771.11) rotate(180)"/><rect class="cls-17" x="524.7" y="375.12" width="0.55" height="20.88" transform="translate(1049.95 771.11) rotate(180)"/><rect class="cls-17" x="523.54" y="375.12" width="0.55" height="20.88" transform="translate(1047.63 771.11) rotate(180)"/><rect class="cls-17" x="522.37" y="375.12" width="0.55" height="20.88" transform="translate(1045.3 771.11) rotate(180)"/><rect class="cls-17" x="521.21" y="375.12" width="0.55" height="20.88" transform="translate(1042.97 771.11) rotate(180)"/><rect class="cls-17" x="520.05" y="375.12" width="0.55" height="20.88" transform="translate(1040.65 771.11) rotate(180)"/><rect class="cls-17" x="518.89" y="375.12" width="0.55" height="20.88" transform="translate(1038.32 771.11) rotate(180)"/><rect class="cls-17" x="517.72" y="375.12" width="0.55" height="20.88" transform="translate(1036 771.11) rotate(180)"/><rect class="cls-17" x="516.56" y="375.12" width="0.55" height="20.88" transform="translate(1033.67 771.11) rotate(180)"/><rect class="cls-17" x="515.4" y="375.12" width="0.55" height="20.88" transform="translate(1031.34 771.11) rotate(180)"/><rect class="cls-17" x="514.23" y="375.12" width="0.55" height="20.88" transform="translate(1029.02 771.11) rotate(180)"/><rect class="cls-17" x="513.07" y="375.12" width="0.55" height="20.88" transform="translate(1026.69 771.11) rotate(180)"/><rect class="cls-17" x="511.91" y="375.12" width="0.55" height="20.88" transform="translate(1024.37 771.11) rotate(180)"/><rect class="cls-17" x="510.74" y="375.12" width="0.55" height="20.88" transform="translate(1022.04 771.11) rotate(180)"/><rect class="cls-17" x="509.58" y="375.12" width="0.55" height="20.88" transform="translate(1019.71 771.11) rotate(180)"/><rect class="cls-17" x="508.42" y="375.12" width="0.55" height="20.88" transform="translate(1017.39 771.11) rotate(180)"/><rect class="cls-17" x="507.25" y="375.12" width="0.55" height="20.88" transform="translate(1015.06 771.11) rotate(180)"/><rect class="cls-17" x="506.09" y="375.12" width="0.55" height="20.88" transform="translate(1012.74 771.11) rotate(180)"/><rect class="cls-17" x="504.93" y="375.12" width="0.55" height="20.88" transform="translate(1010.41 771.11) rotate(180)"/><rect class="cls-17" x="503.77" y="375.12" width="0.55" height="20.88" transform="translate(1008.08 771.11) rotate(180)"/><rect class="cls-17" x="502.6" y="375.12" width="0.55" height="20.88" transform="translate(1005.76 771.11) rotate(180)"/><rect class="cls-17" x="501.44" y="375.12" width="0.55" height="20.88" transform="translate(1003.43 771.11) rotate(180)"/><rect class="cls-17" x="500.28" y="375.12" width="0.55" height="20.88" transform="translate(1001.1 771.11) rotate(180)"/><rect class="cls-17" x="499.11" y="375.12" width="0.55" height="20.88" transform="translate(998.78 771.11) rotate(180)"/><rect class="cls-17" x="497.95" y="375.12" width="0.55" height="20.88" transform="translate(996.45 771.11) rotate(180)"/><rect class="cls-17" x="496.79" y="375.12" width="0.55" height="20.88" transform="translate(994.13 771.11) rotate(180)"/><rect class="cls-17" x="495.62" y="375.12" width="0.55" height="20.88" transform="translate(991.8 771.11) rotate(180)"/><rect class="cls-17" x="494.46" y="375.12" width="0.55" height="20.88" transform="translate(989.47 771.11) rotate(180)"/><rect class="cls-17" x="493.3" y="375.12" width="0.55" height="20.88" transform="translate(987.15 771.11) rotate(180)"/><rect class="cls-17" x="492.14" y="375.12" width="0.55" height="20.88" transform="translate(984.82 771.11) rotate(180)"/><rect class="cls-17" x="490.97" y="375.12" width="0.55" height="20.88" transform="translate(982.5 771.11) rotate(180)"/><rect class="cls-17" x="489.81" y="375.12" width="0.55" height="20.88" transform="translate(980.17 771.11) rotate(180)"/><rect class="cls-17" x="488.65" y="375.12" width="0.55" height="20.88" transform="translate(977.84 771.11) rotate(180)"/><rect class="cls-17" x="487.48" y="375.12" width="0.55" height="20.88" transform="translate(975.52 771.11) rotate(180)"/><rect class="cls-17" x="486.32" y="375.12" width="0.55" height="20.88" transform="translate(973.19 771.11) rotate(180)"/><rect class="cls-17" x="485.16" y="375.12" width="0.55" height="20.88" transform="translate(970.87 771.11) rotate(180)"/><rect class="cls-17" x="483.99" y="375.12" width="0.55" height="20.88" transform="translate(968.54 771.11) rotate(180)"/><rect class="cls-17" x="482.83" y="375.12" width="0.55" height="20.88" transform="translate(966.21 771.11) rotate(180)"/><rect class="cls-26" x="323.56" y="411.16" width="3.81" height="90.09"/><rect class="cls-26" x="581.24" y="411.16" width="3.81" height="90.09"/><path class="cls-26" d="M359.59,446V411.16h-3.81v38.21A46.85,46.85,0,0,0,359.59,446Z"/><path class="cls-26" d="M391.8,428.13v-17H388V429.8C389.23,429.21,390.52,428.67,391.8,428.13Z"/><path class="cls-26" d="M424,417.7v-6.54h-3.82v7.62C421.47,418.43,422.74,418.07,424,417.7Z"/><path class="cls-27" d="M456.22,415.7v-4.54H452.4v4.7C453.68,415.89,454.94,415.77,456.22,415.7Z"/><path class="cls-26" d="M488.42,419.44v-8.28h-3.81v7.48C485.9,418.87,487.17,419.13,488.42,419.44Z"/><path class="cls-26" d="M520.64,430.22V411.16h-3.82v17.31A24,24,0,0,1,520.64,430.22Z"/><path class="cls-26" d="M552.85,448.87V411.16H549v35.09C550.25,447.22,551.58,448,552.85,448.87Z"/><path class="cls-27" d="M582.63,498.11c0-9.55-3.52-19.82-10.17-29.7-6.51-9.68-16-19-27.53-26.94a150.82,150.82,0,0,0-40.72-19.59,166.87,166.87,0,0,0-49.85-7.58q-6.69,0-13.32.53a1.09,1.09,0,0,0-.75.06,166.64,166.64,0,0,0-35.77,7,150.68,150.68,0,0,0-40.72,19.59,111.2,111.2,0,0,0-23.71,21.73.94.94,0,0,0-.52.46.9.9,0,0,0-.09.32c-1.14,1.47-2.21,2.94-3.21,4.43-6.65,9.88-10.17,20.15-10.17,29.7A40.65,40.65,0,0,0,327.9,510a.9.9,0,0,0-.1,1.06,1,1,0,0,0,.59.45l.13.38h36.24l-.08-1.16c-.07-1-.1-1.84-.1-2.71,0-8,2.44-17.18,7.05-26.66a107.72,107.72,0,0,1,19.29-27.24,112.2,112.2,0,0,1,9.81-9h0a.92.92,0,0,0,.35-.3A101.23,101.23,0,0,1,418,433.76a2,2,0,0,0,1.08-.55l.43-.22a76.11,76.11,0,0,1,69.71,0l.62.32a1.07,1.07,0,0,0,.58.42,1.24,1.24,0,0,0,.33,0,105.42,105.42,0,0,1,27,20.33,107.51,107.51,0,0,1,19.3,27.24c4.61,9.48,7,18.7,7,26.66,0,.87,0,1.75-.1,2.71l-.08,1.16h36.25l.11-.34a1,1,0,0,0,.76-.49.91.91,0,0,0-.22-1.17A40.6,40.6,0,0,0,582.63,498.11Zm-38.27-4.46,13.74,6.91-11.61,8.22c0-.26,0-.52,0-.78A53.41,53.41,0,0,0,544.36,493.65Zm-6-14.94,12.35,2.59-7.64,8.37A84.92,84.92,0,0,0,538.41,478.71Zm-7.32-12.1,9.41-.4-4,8.86C534.84,472.22,533,469.4,531.09,466.61Zm-158.73,8.31-4-8.71,9.26.4C375.72,469.35,374,472.13,372.36,474.92Zm-6.72,14.66L358,481.34l12.34-2.59A83.76,83.76,0,0,0,365.64,489.58Zm-37.18,8.53a41.61,41.61,0,0,1,1.28-10L347,500.29l-17,8.55A38.37,38.37,0,0,1,328.46,498.11Zm3-11.21,24.21-5.08,8.95,9.6L349,499.29Zm17.32,14.66,11.48,8.13H332.65ZM362.22,508c0,.22,0,.45,0,.67l-11.45-8.11,13.56-6.82A53.47,53.47,0,0,0,362.22,508Zm-5.79-28.3-13.58-14.57,23.24,1,4.82,10.54Zm21.47-15-10.41-.45-7.4-16.18L376.56,451Zm.77-13.38,10.08,1.76a114,114,0,0,0-8.89,10.46Zm-.19-2-1.22-12.53,13.1,4.83-.69,9.66Zm-.1-14.16q6.21-3.33,12.86-6.13l-.74,10.59Zm126.76-10.7c2.94,1,5.83,2,8.66,3.08L506.63,431Zm-.41,7.41-5.85,2.79L497.34,429l5.71-4.39Zm-8-5-1.42-5.27q3,.78,6.08,1.69ZM495,428.28l-3.72,2.86-1.62-5.43,3.8-3.12Zm-6-4.62L488,419.92c1.49.31,3,.65,4.46,1Zm-1.72,1.41L484,427.82l-1.87-3.62,3.94-3.41Zm-6.15-2.68-2.1-4.06q2.85.44,5.67,1Zm-1.58,1.37-2.1,1.82L474,421.2l2.87-2.72Zm-6.85-4.12-1.87-2.33c1.29.13,2.58.27,3.87.43ZM471.29,421l-2.77,2.63L466,420.59l2.56-3Zm-6.59-2-1.91-2.32c1.23.06,2.47.13,3.69.22Zm-1.32,1.55-1.61,1.88-3.1-3.13,2-2.07Zm-6.11-2.66-1.41-1.42,2.72.05Zm-1.37,1.44-2.34,2.47-2-2.2,2.11-2.49Zm-5.67-1.23-1.39-1.55,2.76-.07Zm-1.3,1.54-2,2.41L445,419.65l1.79-2.34ZM443.76,418l-.86-1.12c.6,0,1.2-.09,1.81-.12Zm-1.28,1.63c-1.1,1.42-2.11,2.69-2.74,3.44l-2.08-2,3.07-3.74Zm-6.28.09-2.1-2c1.37-.17,2.74-.33,4.11-.46Zm-1.26,1.53-3.55,4.34-2.12-1.83,2.74-5.28Zm-7.25,1.14-3.6-3.12c1.9-.35,3.8-.68,5.71-1Zm-.93,1.81-1.87,3.62-3.35-2.75,1.28-4.28Zm-6.95-.54-3.37-2.77c1.5-.35,3-.69,4.5-1Zm-.61,2-1.62,5.43-3.72-2.86,1.54-5.69Zm-7.1,1.21-4.7-3.62c2-.6,4.08-1.17,6.13-1.69Zm-.56,2.05L410,434.69l-5.84-2.79,1.68-7.32Zm-9.29,2L395,427.54q4.29-1.67,8.74-3.1Zm-8.93-2.11,8.48,4-2.3,10-7-2.57Zm10.38,4.95,5.31,2.53c-2.37,1.52-4.71,3.15-7,4.89Zm9.6-3.51,2.62,2c-1.25.67-2.49,1.36-3.72,2.08Zm7.63-3.21,2.18,1.79c-1.05.45-2.1.92-3.14,1.41Zm7.41-1.56,1.09.95c-.64.22-1.29.44-1.93.68Zm8.06-2.93,1.59,1.52c-1.18.25-2.36.54-3.54.85Zm7.35-1.34,1.28,1.65c-1,.12-1.95.26-2.93.42C442.54,422.82,443.08,422.15,443.75,421.29Zm6.53-.13,1.13,1.26c-.77,0-1.53.07-2.3.13Zm7-.4,1.72,1.75c-1.08-.07-2.17-.12-3.25-.13Zm7.36,1.38.87,1.05L464,423Zm7.87.44,2,2.49c-1.22-.33-2.45-.63-3.67-.9Zm8,3,.87,1.7c-.66-.25-1.34-.48-2-.71Zm7.42,1.56,1,3.28c-1.08-.5-2.15-1-3.23-1.44Zm7.62,3.21,1.13,4.2c-1.26-.75-2.53-1.46-3.81-2.14Zm9.59,3.51,1.74,7.56q-3.5-2.65-7.13-5Zm1.91-.91,8.48-4,.81,11.5-7,2.57Zm10.56-3.8q6.6,2.78,12.76,6.09l-12,4.43Zm14,7.69-1.22,12.53-11.19,2-.69-9.66Zm-1.41,14.51-1.2,12.4a117.27,117.27,0,0,0-9-10.62Zm2.11-.37,16.47-2.88-7.4,16.17L531,464.7Zm10.47,15.15,22.74-1-13.27,14.53-14.3-3ZM553,481.78l24.37,5.12-17.5,12.39-15.67-7.88Zm7.06,19.78,16.14,8.13H548.61Zm1.79-1.27L579,488.17a41.35,41.35,0,0,1,1.26,9.94,38.17,38.17,0,0,1-1.54,10.66Zm16.25-15.19-23.61-5,13.16-14.41A64.72,64.72,0,0,1,578.13,485.1Zm-12.45-21.89-22,1,7.1-15.53A102.72,102.72,0,0,1,565.68,463.21Zm-17.88-16.9L532.51,449l1.16-12q5.08,2.91,9.85,6.19C545,444.23,546.41,445.27,547.8,446.31Zm-182.59-3.09c3.21-2.21,6.55-4.3,10-6.27l1.17,12L361,446.29C362.34,445.25,363.75,444.23,365.21,443.22Zm-7.15,5.32,7.14,15.63L343,463.23A103.92,103.92,0,0,1,358.06,448.54ZM340.88,466l13.28,14.23-23.58,4.95A64.75,64.75,0,0,1,340.88,466Zm50.95-16,.54-7.6,5.62,2.07Q394.83,447.1,391.83,450Zm119-5.49,5.72-2.11.54,7.75C515,448.18,512.94,446.29,510.79,444.5Z"/><path class="cls-26" d="M582.63,498.79c0-9.55-3.52-19.82-10.17-29.7-6.51-9.68-16-19-27.53-26.93a150.84,150.84,0,0,0-40.72-19.6A166.87,166.87,0,0,0,454.36,415q-6.69,0-13.32.53a1.26,1.26,0,0,0-.27,0,1,1,0,0,0-.48.11,166,166,0,0,0-35.77,7,150.7,150.7,0,0,0-40.72,19.6,110.91,110.91,0,0,0-23.71,21.72,1,1,0,0,0-.52.46.9.9,0,0,0-.09.32c-1.14,1.47-2.21,2.94-3.21,4.43-6.65,9.88-10.17,20.15-10.17,29.7a40.76,40.76,0,0,0,1.8,11.88.89.89,0,0,0-.1,1.05,1,1,0,0,0,.59.45l.13.38h36.24l-.08-1.16c-.07-1-.1-1.84-.1-2.71,0-8,2.44-17.18,7.05-26.66a107.72,107.72,0,0,1,19.29-27.24,110.54,110.54,0,0,1,9.81-9h0a1,1,0,0,0,.35-.3A101.23,101.23,0,0,1,418,434.44a1.9,1.9,0,0,0,1.08-.55l.43-.22a76.11,76.11,0,0,1,69.71,0l.62.32a1.07,1.07,0,0,0,.58.42.93.93,0,0,0,.33,0,105.42,105.42,0,0,1,27,20.33A107.51,107.51,0,0,1,537.1,482c4.61,9.48,7,18.7,7,26.66,0,.87,0,1.75-.1,2.71l-.08,1.16h36.25l.11-.34a1,1,0,0,0,.76-.49.91.91,0,0,0-.22-1.17A40.55,40.55,0,0,0,582.63,498.79Zm-38.27-4.46,13.74,6.92-11.61,8.21c0-.26,0-.52,0-.78A53.41,53.41,0,0,0,544.36,494.33Zm-6-14.94L550.76,482l-7.64,8.37A84.92,84.92,0,0,0,538.41,479.39Zm-7.32-12.1,9.41-.4-4,8.86C534.84,472.91,533,470.08,531.09,467.29ZM372.36,475.6l-4-8.71,9.26.39Q374.76,471.41,372.36,475.6Zm-6.72,14.66L358,482l12.34-2.59A83.76,83.76,0,0,0,365.64,490.26Zm-37.18,8.53a41.61,41.61,0,0,1,1.28-10L347,501l-17,8.55A38.32,38.32,0,0,1,328.46,498.79Zm3-11.21,24.21-5.08,8.95,9.6L349,500Zm17.32,14.66,11.48,8.13H332.65Zm13.43,6.44c0,.22,0,.45,0,.68l-11.45-8.11,13.56-6.83A53.52,53.52,0,0,0,362.22,508.68Zm-5.79-28.3-13.58-14.57,23.24,1,4.82,10.55Zm21.47-15-10.41-.45-7.4-16.18,16.47,2.88Zm.77-13.38,10.08,1.76a114,114,0,0,0-8.89,10.46Zm-.19-2-1.22-12.52,13.1,4.82-.69,9.66Zm-.1-14.16q6.21-3.33,12.86-6.12l-.74,10.58Zm126.76-10.7q4.41,1.43,8.66,3.09l-7.17,3.42Zm-.41,7.42-5.85,2.78-1.54-5.71,5.71-4.4Zm-8-5-1.42-5.27c2,.52,4.06,1.09,6.08,1.69ZM495,429l-3.72,2.86-1.62-5.43,3.8-3.12Zm-6-4.61L488,420.61c1.49.31,3,.64,4.46,1Zm-1.72,1.4L484,428.5l-1.87-3.62,3.94-3.41Zm-6.15-2.68-2.1-4.06q2.85.44,5.67,1Zm-1.58,1.37-2.1,1.82L474,421.88l2.87-2.72Zm-6.85-4.11L470.89,418c1.29.13,2.58.27,3.87.43Zm-1.47,1.38-2.77,2.63L466,421.27l2.56-3Zm-6.59-2-1.91-2.32c1.23.06,2.47.13,3.69.22Zm-1.32,1.55-1.61,1.88-3.1-3.12,2-2.08Zm-6.11-2.66-1.41-1.42,2.72.05ZM455.9,420l-2.34,2.46-2-2.2,2.11-2.49Zm-5.67-1.23-1.39-1.55c.92,0,1.84-.06,2.76-.07Zm-1.3,1.53-2,2.41L445,420.33l1.79-2.34Zm-5.17-1.66-.86-1.12,1.81-.12Zm-1.28,1.64c-1.1,1.41-2.11,2.68-2.74,3.43l-2.08-2,3.07-3.74Zm-6.28.08-2.1-2c1.37-.17,2.74-.33,4.11-.46Zm-1.26,1.54-3.55,4.33-2.12-1.83,2.74-5.28Zm-7.25,1.13-3.6-3.12q2.85-.52,5.71-1Zm-.93,1.81-1.87,3.62-3.35-2.75,1.28-4.28Zm-6.95-.53-3.37-2.78c1.49-.35,3-.69,4.5-1Zm-.61,2-1.62,5.43L413.86,429l1.54-5.69Zm-7.1,1.21L407.4,424c2-.61,4.08-1.18,6.13-1.7Zm-.56,2.06L410,435.37l-5.84-2.78,1.68-7.33Zm-9.29,2L395,428.23c2.86-1.12,5.77-2.15,8.74-3.11Zm-8.93-2.11,8.48,4-2.3,10-7-2.58Zm10.38,4.95,5.31,2.53c-2.37,1.52-4.71,3.16-7,4.89Zm9.6-3.51,2.62,2c-1.25.67-2.49,1.36-3.72,2.08Zm7.63-3.21,2.18,1.8c-1.05.44-2.1.91-3.14,1.4Zm7.41-1.55,1.09.94-1.93.68Zm8.06-2.93,1.59,1.51c-1.18.26-2.36.54-3.54.86Zm7.35-1.35,1.28,1.65c-1,.13-1.95.26-2.93.42C442.54,423.51,443.09,422.83,443.75,422Zm6.53-.13,1.13,1.26c-.76,0-1.53.07-2.3.13Zm7-.39,1.72,1.74c-1.08-.07-2.17-.11-3.25-.13Zm7.36,1.37.87,1.05-1.59-.21Zm7.87.44,2,2.49c-1.22-.33-2.45-.62-3.67-.9Zm8,3,.87,1.69c-.66-.25-1.34-.48-2-.71ZM488,427.8l1,3.28c-1.08-.5-2.15-1-3.23-1.44Zm7.62,3.21,1.13,4.2c-1.26-.74-2.53-1.46-3.81-2.14Zm9.59,3.51,1.74,7.56q-3.5-2.65-7.13-5Zm1.91-.91,8.48-4,.81,11.5-7,2.58Zm10.56-3.8q6.6,2.78,12.77,6.09l-12,4.43Zm14,7.7L530.4,450l-11.19,2-.69-9.66ZM530.21,452l-1.2,12.4a117.27,117.27,0,0,0-9-10.62Zm2.11-.37,16.47-2.88-7.4,16.18-10.41.45Zm10.47,15.15,22.74-1-13.27,14.53-14.3-3ZM553,482.46l24.37,5.12L559.9,500l-15.67-7.88Zm7.06,19.78,16.14,8.13H548.61Zm1.79-1.27L579,488.85a41.35,41.35,0,0,1,1.26,9.94,38.29,38.29,0,0,1-1.54,10.67Zm16.25-15.19-23.61-5,13.16-14.41A64.72,64.72,0,0,1,578.13,485.78Zm-12.45-21.89-22,.95,7.1-15.52A102.68,102.68,0,0,1,565.68,463.89ZM547.8,447l-15.29,2.67,1.16-11.94q5.1,2.91,9.85,6.18Q545.71,445.43,547.8,447ZM365.21,443.9c3.21-2.21,6.55-4.3,10-6.27l1.17,12L361,447C362.34,445.93,363.75,444.91,365.21,443.9Zm-7.15,5.33,7.14,15.62L343,463.91A103.36,103.36,0,0,1,358.06,449.23Zm-17.18,17.4,13.28,14.23-23.58,4.95A64.75,64.75,0,0,1,340.88,466.63Zm50.95-16,.54-7.6,5.62,2.07Q394.83,447.78,391.83,450.67Zm119-5.49,5.72-2.11.54,7.76C515,448.86,512.94,447,510.79,445.18Z"/><rect class="cls-28" x="322.73" y="499.58" width="45.01" height="43.27"/><rect class="cls-29" x="322.73" y="524.24" width="45.01" height="18.61"/><rect class="cls-28" x="540.23" y="499.58" width="45.01" height="43.27"/><rect class="cls-29" x="540.23" y="524.24" width="45.01" height="18.61"/><rect class="cls-26" x="274.25" y="397.9" width="359.69" height="2.49"/><rect class="cls-26" x="275.15" y="399.44" width="0.69" height="5.36"/><rect class="cls-26" x="282.91" y="399.44" width="0.69" height="5.36"/><rect class="cls-26" x="290.67" y="399.44" width="0.69" height="5.36"/><rect class="cls-26" x="298.43" y="399.44" width="0.7" height="5.36"/><rect class="cls-26" x="306.19" y="399.44" width="0.7" height="5.36"/><rect class="cls-26" x="313.95" y="399.44" width="0.7" height="5.36"/><rect class="cls-26" x="321.71" y="399.44" width="0.7" height="5.36"/><rect class="cls-26" x="329.47" y="399.44" width="0.7" height="5.36"/><rect class="cls-26" x="337.23" y="399.44" width="0.7" height="5.36"/><rect class="cls-26" x="344.99" y="399.44" width="0.7" height="5.36"/><rect class="cls-26" x="352.75" y="399.44" width="0.69" height="5.36"/><rect class="cls-26" x="360.51" y="399.44" width="0.7" height="5.36"/><rect class="cls-26" x="368.27" y="399.44" width="0.7" height="5.36"/><rect class="cls-26" x="376.03" y="399.44" width="0.7" height="5.36"/><rect class="cls-26" x="383.79" y="399.44" width="0.7" height="5.36"/><rect class="cls-26" x="391.56" y="399.44" width="0.7" height="5.36"/><rect class="cls-26" x="399.32" y="399.44" width="0.7" height="5.36"/><rect class="cls-26" x="407.07" y="399.44" width="0.7" height="5.36"/><rect class="cls-26" x="414.84" y="399.44" width="0.7" height="5.36"/><rect class="cls-26" x="422.6" y="399.44" width="0.7" height="5.36"/><rect class="cls-26" x="430.35" y="399.44" width="0.7" height="5.36"/><rect class="cls-26" x="438.12" y="399.44" width="0.7" height="5.36"/><rect class="cls-26" x="445.88" y="399.44" width="0.7" height="5.36"/><rect class="cls-26" x="453.64" y="399.44" width="0.7" height="5.36"/><rect class="cls-26" x="461.4" y="399.44" width="0.7" height="5.36"/><rect class="cls-26" x="469.16" y="399.44" width="0.7" height="5.36"/><rect class="cls-26" x="476.92" y="399.44" width="0.69" height="5.36"/><rect class="cls-26" x="484.68" y="399.44" width="0.7" height="5.36"/><rect class="cls-26" x="492.44" y="399.44" width="0.69" height="5.36"/><rect class="cls-26" x="500.2" y="399.44" width="0.7" height="5.36"/><rect class="cls-26" x="507.96" y="399.44" width="0.7" height="5.36"/><rect class="cls-26" x="515.73" y="399.44" width="0.7" height="5.36"/><rect class="cls-26" x="523.49" y="399.44" width="0.69" height="5.36"/><rect class="cls-26" x="531.24" y="399.44" width="0.7" height="5.36"/><rect class="cls-26" x="539.01" y="399.44" width="0.7" height="5.36"/><rect class="cls-26" x="546.77" y="399.44" width="0.7" height="5.36"/><rect class="cls-26" x="554.52" y="399.44" width="0.7" height="5.36"/><rect class="cls-26" x="562.29" y="399.44" width="0.7" height="5.36"/><rect class="cls-26" x="570.05" y="399.44" width="0.7" height="5.36"/><rect class="cls-26" x="577.81" y="399.44" width="0.7" height="5.36"/><rect class="cls-26" x="585.57" y="399.44" width="0.7" height="5.36"/><rect class="cls-26" x="593.33" y="399.44" width="0.7" height="5.36"/><rect class="cls-26" x="601.09" y="399.44" width="0.7" height="5.36"/><rect class="cls-26" x="608.85" y="399.44" width="0.7" height="5.36"/><rect class="cls-26" x="616.61" y="399.44" width="0.7" height="5.36"/><rect class="cls-26" x="624.37" y="399.44" width="0.7" height="5.36"/><rect class="cls-26" x="632.13" y="399.44" width="0.7" height="5.36"/><rect class="cls-30" x="274.02" y="410.1" width="359.58" height="3.79"/><rect class="cls-31" x="274.02" y="410.05" width="359.58" height="2.13"/><rect class="cls-32" x="274.02" y="402.9" width="359.58" height="7.96"/><path class="cls-33" d="M304.37,408a1.35,1.35,0,1,1-1.35-1.26A1.31,1.31,0,0,1,304.37,408Z"/><path class="cls-33" d="M325.85,408a1.34,1.34,0,1,1-1.34-1.26A1.31,1.31,0,0,1,325.85,408Z"/><path class="cls-33" d="M347.33,408a1.34,1.34,0,1,1-1.34-1.26A1.31,1.31,0,0,1,347.33,408Z"/><path class="cls-33" d="M368.81,408a1.34,1.34,0,1,1-1.34-1.26A1.31,1.31,0,0,1,368.81,408Z"/><path class="cls-33" d="M390.29,408a1.34,1.34,0,1,1-1.34-1.26A1.31,1.31,0,0,1,390.29,408Z"/><path class="cls-33" d="M411.77,408a1.34,1.34,0,1,1-1.34-1.26A1.31,1.31,0,0,1,411.77,408Z"/><path class="cls-33" d="M433.26,408a1.35,1.35,0,1,1-1.35-1.26A1.32,1.32,0,0,1,433.26,408Z"/><path class="cls-33" d="M454.74,408a1.35,1.35,0,1,1-1.34-1.26A1.31,1.31,0,0,1,454.74,408Z"/><path class="cls-33" d="M476.22,408a1.35,1.35,0,1,1-1.34-1.26A1.31,1.31,0,0,1,476.22,408Z"/><path class="cls-33" d="M497.7,408a1.34,1.34,0,1,1-1.34-1.26A1.31,1.31,0,0,1,497.7,408Z"/><path class="cls-33" d="M519.18,408a1.34,1.34,0,1,1-1.34-1.26A1.31,1.31,0,0,1,519.18,408Z"/><path class="cls-33" d="M540.66,408a1.34,1.34,0,1,1-1.34-1.26A1.31,1.31,0,0,1,540.66,408Z"/><path class="cls-33" d="M562.14,408a1.34,1.34,0,1,1-1.34-1.26A1.31,1.31,0,0,1,562.14,408Z"/><path class="cls-33" d="M583.62,408a1.34,1.34,0,1,1-1.34-1.26A1.31,1.31,0,0,1,583.62,408Z"/><path class="cls-33" d="M605.11,408a1.35,1.35,0,1,1-1.34-1.26A1.31,1.31,0,0,1,605.11,408Z"/><path class="cls-33" d="M626.58,408a1.3,1.3,0,0,1-1.33,1.27,1.27,1.27,0,1,1,0-2.53A1.3,1.3,0,0,1,626.58,408Z"/><circle class="cls-34" cx="722.26" cy="420.46" r="103.32"/><line class="cls-35" x1="688.99" y1="377.49" x2="785.5" y2="502.16"/><line class="cls-35" x1="738.66" y1="364.27" x2="728.55" y2="428.59"/><line class="cls-35" x1="753.98" y1="461.43" x2="670.09" y2="450.62"/><ellipse class="cls-36" cx="618.93" cy="479.33" rx="55.42" ry="77.36" transform="translate(-163.53 503.59) rotate(-39.53)"/><polyline class="cls-37" points="668.17 539 615.2 472.54 589.72 440.57"/><line class="cls-37" x1="619.77" y1="438.08" x2="615.2" y2="472.53"/><line class="cls-37" x1="593.64" y1="500.2" x2="644.1" y2="507.56"/><line class="cls-37" x1="655.43" y1="523.01" x2="661.47" y2="476.63"/><rect class="cls-38" x="748.13" y="269.75" width="17.18" height="7.09" transform="translate(1513.44 546.59) rotate(-180)"/><polygon class="cls-38" points="747.34 272.67 766.1 272.67 765.31 267.2 748.13 267.2 747.34 272.67"/><rect class="cls-38" x="712.26" y="273.98" width="11.56" height="4.77" transform="translate(1436.09 552.72) rotate(-180)"/><polygon class="cls-38" points="711.73 275.94 724.36 275.94 723.82 272.26 712.26 272.26 711.73 275.94"/><rect class="cls-38" x="695.74" y="281.13" width="11.56" height="4.77" transform="translate(1403.04 567.03) rotate(-180)"/><polygon class="cls-38" points="695.21 283.1 707.83 283.1 707.3 279.42 695.74 279.42 695.21 283.1"/><polygon class="cls-38" points="730.79 290.41 738.08 297.69 738.08 304.43 730.79 304.43 723.74 304.43 723.8 298 730.79 290.41"/><polygon class="cls-38" points="730.79 290.41 740.81 290.41 748.1 297.69 748.1 304.43 738.08 304.43 738.08 297.69 730.79 290.41"/><polygon class="cls-38" points="740.81 290.41 748.1 297.69 748.1 298.35 738.08 298.35 730.79 291.16 723.83 297.97 723.5 297.69 730.79 290.41 740.81 290.41"/><rect class="cls-38" x="744.17" y="300.17" width="2.13" height="2.13" transform="translate(1490.47 602.47) rotate(-180)"/><rect class="cls-38" x="740.37" y="300.17" width="2.13" height="2.13" transform="translate(1482.86 602.47) rotate(-180)"/><rect class="cls-38" x="729.54" y="300.01" width="2.74" height="4.58" transform="translate(1461.82 604.6) rotate(-180)"/><polygon class="cls-38" points="737.38 264.82 743.98 271.03 743.98 273.99 737.38 273.99 730.28 273.99 730.28 271.03 737.38 264.82"/><polygon class="cls-38" points="737.38 264.82 733.66 264.82 727.46 271.03 727.46 273.99 730.86 273.99 730.86 271.03 737.38 264.82"/><polygon class="cls-38" points="726.56 271.03 730.28 271.03 730.86 271.35 737.38 265.77 743.98 271.5 744.48 271.03 737.38 264.82 733.66 264.82 726.56 271.03"/><polygon class="cls-38" points="730.86 271.35 730.28 271.03 726.56 271.03 727.28 271.35 730.86 271.35"/></g></g></svg>